<?xml version="1.0" standalone="no"?>
<!DOCTYPE svg PUBLIC "-//W3C//DTD SVG 20010904//EN"
 "http://www.w3.org/TR/2001/REC-SVG-20010904/DTD/svg10.dtd">
<svg version="1.0" xmlns="http://www.w3.org/2000/svg"
 width="512.000000pt" height="512.000000pt" viewBox="0 0 512.000000 512.000000"
 preserveAspectRatio="xMidYMid meet">
<metadata>
Created by potrace 1.14, written by Peter Selinger 2001-2017
</metadata>
<g transform="translate(0.000000,512.000000) scale(0.100000,-0.100000)"
fill="#000000" stroke="none">
<path d="M2498 4708 c-31 -4 -73 -14 -93 -23 -64 -26 -1568 -896 -1613 -933
-61 -49 -107 -115 -134 -192 l-23 -65 0 -935 0 -935 23 -65 c27 -76 73 -143
134 -192 64 -52 1574 -919 1637 -941 73 -25 189 -25 262 0 63 21 1573 889
1637 941 61 49 107 115 134 192 l23 65 0 935 0 935 -23 65 c-27 76 -73 143
-134 192 -62 51 -1573 919 -1633 939 -65 21 -126 27 -197 17z m-914 -1338 c50
-25 777 -640 820 -693 29 -36 31 -45 31 -117 0 -72 -2 -81 -31 -117 -43 -53
-770 -668 -820 -693 -108 -54 -244 7 -279 124 -18 61 -11 113 24 166 14 22
150 145 306 276 154 130 280 240 280 244 0 4 -126 114 -280 244 -156 131 -292
254 -306 276 -68 103 -30 233 86 293 43 23 120 21 169 -3z m2129 -1259 c149
-73 147 -285 -4 -362 -36 -18 -63 -19 -534 -19 -425 0 -501 2 -533 15 -139 59
-164 246 -46 343 21 17 56 36 79 41 22 5 250 9 515 8 l475 -2 48 -24z"/>
</g>
</svg>
