<?xml version="1.0" standalone="no"?>
<!DOCTYPE svg PUBLIC "-//W3C//DTD SVG 1.1//EN" "http://www.w3.org/Graphics/SVG/1.1/DTD/svg11.dtd">
<svg xmlns="http://www.w3.org/2000/svg">
<defs >
<font id="PlusJakartaSans" horiz-adv-x="587" ><font-face
    font-family="Plus Jakarta Sans Light"
    units-per-em="1000"
    panose-1="0 0 0 0 0 0 0 0 0 0"
    ascent="1038"
    descent="-222"
    alphabetic="0" />
<glyph unicode=" " horiz-adv-x="165" />
<glyph unicode="!" horiz-adv-x="270" d="M99 211L170 745H235L156 211H99ZM65 0L78 100H146L132 0H65Z" />
<glyph unicode="&quot;" horiz-adv-x="371" d="M134 544L150 745H218L179 544H134ZM271 544L288 745H355L316 544H271Z" />
<glyph unicode="#" horiz-adv-x="766" d="M62 0L149 204H29L37 262H174L269 484H149L157 542H294L380 745H446L360 542H582L669 745H735L648 542H768L759 484H623L528 262H648L640 204H503L416 0H350L437 204H215L128 0H62ZM240 262H462L557 484H335L240 262Z" />
<glyph unicode="$" horiz-adv-x="644" d="M311 -12Q245 -12 191 12T99 81T49 182L109 201Q128 126 182 86T314 46Q371 46 411 65T474 119T497 196Q497 243 471 274T394 320L261 360Q192 381 156 429T119 543Q119 602 150 651T235 728T357 757Q419 757 468 734T549
671T593 580L534 561Q517 626 470 663T356 700Q306 700 267 680T205 626T182 547Q182 500 208 468T294 417L412 381Q486 358 523 312T561 199Q561 141 530 93T443 17T311 -12ZM243 -100L375 845H433L301 -100H243Z" />
<glyph unicode="%" horiz-adv-x="979" d="M108 0L825 745H904L187 0H108ZM271 376Q222 376 182 399T118 463T94 553Q94 608 122 654T196 729T298 757Q347 757 387 734T450 670T474 580Q474 526 446 479T372 404T271 376ZM275 434Q312 434 343 453T394 505T414
575Q414 607 399 635T357 682T294 700Q257 700 225 680T174 628T154 558Q154 526 169 498T212 452T275 434ZM712 -12Q663 -12 623 12T559 76T535 165Q535 220 563 266T637 341T739 369Q788 369 828 346T891 282T914 192Q914 138 887 91T813 16T712 -12ZM716 46Q753
46 784 65T834 117T854 187Q854 219 839 247T798 294T735 312Q699 312 667 292T615 240T595 170Q595 138 610 110T653 64T716 46Z" />
<glyph unicode="&amp;" horiz-adv-x="735" d="M230 -12Q177 -12 135 8T68 66T43 157Q43 203 60 239T104 303T162 353T223 394L291 437Q331 462 360 488T406 543T423 605Q423 646 397 671T331 696Q298 696 271 680T227 635T211 574Q211 545 223 519T252 469T288
425L660 0H572L237 383Q218 405 197 433T161 495T146 570Q146 622 171 664T238 732T333 757Q378 757 412 738T467 685T487 605Q487 553 463 513T403 443T329 388L260 344Q222 319 188 294T132 236T111 159Q111 104 145 77T232 49Q274 49 306 63T363 101T410 150T451
201L584 371H661L507 168Q488 143 463 112T404 53T328 7T230 -12Z" />
<glyph unicode="&apos;" horiz-adv-x="233" d="M134 544L150 745H218L179 544H134Z" />
<glyph unicode="(" horiz-adv-x="298" d="M164 -135Q108 -60 80 33T51 226Q51 324 75 417T145 595T257 745H315Q251 670 207 585T140 411T117 234Q117 140 143 46T222 -135H164Z" />
<glyph unicode=")" horiz-adv-x="299" d="M-5 -135Q59 -57 103 28T170 201T193 379Q193 475 167 569T88 745H146Q203 672 231 581T259 387Q259 291 235 197T166 19T53 -135H-5Z" />
<glyph unicode="*" horiz-adv-x="469" d="M160 391L116 426L224 546L98 590L125 648L251 604L271 745H332L312 604L451 648L462 590L325 546L398 426L344 391L268 510L160 391Z" />
<glyph unicode="+" horiz-adv-x="602" d="M234 0L265 221H45L53 281H273L304 500H365L334 281H553L545 221H326L295 0H234Z" />
<glyph unicode="," horiz-adv-x="259" d="M26 -126L30 -97Q57 -89 74 -65T99 0H63L78 100H145L134 18Q126 -41 98 -78T26 -126Z" />
<glyph unicode="-" horiz-adv-x="483" d="M70 237L78 295H413L405 237H70Z" />
<glyph unicode="." horiz-adv-x="274" d="M66 0L80 100H148L134 0H66Z" />
<glyph unicode="/" horiz-adv-x="416" d="M-52 -120L402 705H476L22 -120H-52Z" />
<glyph unicode="0" horiz-adv-x="726" d="M342 -12Q263 -12 205 28T116 141T85 311Q85 398 107 478T172 621T276 720T415 757Q495 757 552 717T640 605T671 436Q671 349 649 269T585 126T482 25T342 -12ZM342 50Q407 50 456 83T539 172T589 297T606 439Q606 556
556 626T414 696Q349 696 300 663T218 575T167 450T150 308Q150 231 172 173T238 82T342 50Z" />
<glyph unicode="1" horiz-adv-x="356" d="M142 0L239 688H99L107 745H312L208 0H142Z" />
<glyph unicode="2" horiz-adv-x="609" d="M40 0L44 40L302 295Q347 340 382 376T442 444T479 507T492 575Q492 632 456 666T352 700Q280 700 228 659T150 543L92 560Q113 623 151 667T240 734T351 757Q411 757 457 735T530 672T557 577Q557 537 544 501T506 430T450
362T384 294L141 58H521L513 0H40Z" />
<glyph unicode="3" horiz-adv-x="605" d="M271 -12Q211 -12 161 10T77 73T34 172L91 191Q104 124 152 85T274 46Q331 46 376 70T446 138T472 239Q472 290 450 325T391 379T306 397Q294 397 280 396T255 392L246 420L479 688H118L126 745H566L560 695L333 435L325
449Q386 450 433 423T508 348T536 237Q536 185 516 140T460 61T376 8T271 -12Z" />
<glyph unicode="4" horiz-adv-x="619" d="M392 0L416 176H32L39 229L499 745H557L485 231H571L562 176H477L453 0H392ZM95 208L86 231H425L488 686L515 680L95 208Z" />
<glyph unicode="5" horiz-adv-x="612" d="M276 -12Q214 -12 165 10T84 74T41 171L97 192Q109 125 157 86T276 46Q333 46 379 73T452 146T479 249Q479 299 458 336T401 394T317 415Q258 415 213 391T143 333L91 344L202 746H567L560 689H212L248 707L159 386L142
396Q176 438 223 456T324 475Q389 475 438 445T516 364T544 250Q544 195 524 148T467 65T382 9T276 -12Z" />
<glyph unicode="6" horiz-adv-x="594" d="M270 -12Q206 -12 158 16T82 92T55 205Q55 257 70 304T114 394T178 480L408 745H488L179 386L160 383Q182 414 209 430T265 453T322 460Q382 460 429 434T504 361T532 251Q532 176 496 116T401 22T270 -12ZM271 46Q325
46 369 72T439 145T466 248Q466 316 425 359T314 402Q261 402 217 376T146 303T119 198Q119 130 161 88T271 46Z" />
<glyph unicode="7" horiz-adv-x="535" d="M37 0L476 689H102L110 746H557L551 691L110 0H37Z" />
<glyph unicode="8" horiz-adv-x="617" d="M282 -12Q215 -12 164 14T85 86T56 192Q56 245 78 291T139 372T229 423L231 405Q185 426 160 464T134 552Q134 609 163 655T243 729T356 757Q411 757 453 736T518 676T542 588Q542 546 527 511T484 449T415 404L416 422Q477
403 512 353T547 237Q547 168 512 112T417 22T282 -12ZM282 46Q341 46 386 70T456 138T482 236Q482 303 439 342T321 382Q262 382 217 358T146 290T120 193Q120 126 164 86T282 46ZM324 440Q367 440 402 459T457 512T478 585Q478 637 443 668T354 700Q311 700 276
681T220 629T199 555Q199 504 234 472T324 440Z" />
<glyph unicode="9" horiz-adv-x="594" d="M136 0L445 359L464 363Q442 333 415 316T360 292T302 285Q242 285 195 311T120 385T92 494Q92 570 128 629T223 723T354 757Q419 757 467 730T542 654T569 541Q569 489 554 442T510 352T446 266L216 0H136ZM309 344Q365
344 409 371T479 445T505 546Q505 615 463 657T353 700Q300 700 256 674T185 601T158 498Q158 429 199 387T309 344Z" />
<glyph unicode=":" horiz-adv-x="274" d="M66 0L80 100H148L133 0H66ZM126 431L141 531H208L194 431H126Z" />
<glyph unicode=";" horiz-adv-x="294" d="M48 -126L52 -97Q80 -89 97 -65T122 0H86L100 100H168L156 18Q148 -41 120 -78T48 -126ZM147 431L161 531H229L214 431H147Z" />
<glyph unicode="&lt;" horiz-adv-x="602" d="M503 45L132 240L140 292L565 487L556 419L181 248L182 279L511 105L503 45Z" />
<glyph unicode="=" horiz-adv-x="602" d="M86 339L95 399H545L536 339H86ZM53 104L62 164H512L503 104H53Z" />
<glyph unicode="&gt;" horiz-adv-x="602" d="M37 45L46 113L421 283L420 252L91 426L99 487L470 292L462 240L37 45Z" />
<glyph unicode="?" horiz-adv-x="487" d="M183 211L185 218Q200 284 231 331T307 419Q333 442 359 467T404 524T422 593Q422 635 391 667T301 700Q242 700 197 664T135 563L79 575Q92 631 124 671T203 734T305 757Q359 757 400 735T464 676T487 595Q487 545 464
506T407 436T342 375Q305 340 281 303T247 218L245 211H183ZM153 0L167 100H234L220 0H153Z" />
<glyph unicode="@" horiz-adv-x="929" d="M447 -206Q366 -206 297 -177T175 -97T93 25T64 176Q64 266 96 345T188 486T328 581T502 616Q588 616 658 586T780 504T858 383T886 238Q886 169 865 116T805 31T714 0Q683 0 656 12T612 48T592 101L608 95Q591 63 565
42T509 11T444 0Q389 0 347 25T280 95T255 195Q255 258 284 310T363 393T474 425Q523 425 564 403T625 338L618 325L631 415H688L651 150Q646 119 654 98T679 68T717 58Q767 58 795 106T824 234Q824 331 783 404T668 518T500 559Q421 559 353 530T233 449T154 329T125
183Q125 88 166 14T282 -104T454 -148Q499 -148 542 -138T622 -108L645 -158Q603 -181 552 -193T447 -206ZM448 58Q492 58 526 80T579 141T599 226Q599 288 564 327T470 366Q426 366 392 344T337 284T317 201Q317 138 354 98T448 58Z" />
<glyph unicode="A" horiz-adv-x="648" d="M-21 0L357 745H424L594 0H527L485 190H147L52 0H-21ZM177 250H472L374 694L398 691L177 250Z" />
<glyph unicode="B" horiz-adv-x="701" d="M57 0L161 745H455Q541 745 590 699T640 576Q640 534 624 497T577 431T505 390L503 408Q565 391 599 344T634 235Q634 166 602 113T512 30T378 0H57ZM130 60H380Q436 60 478 81T545 142T569 231Q569 292 528 328T417 364H173L130
60ZM181 423H416Q463 423 498 442T554 496T575 574Q575 626 540 655T443 685H218L181 423Z" />
<glyph unicode="C" horiz-adv-x="800" d="M418 -12Q349 -12 289 12T184 82T113 193T87 341Q87 428 115 503T195 636T317 725T468 757Q545 757 604 730T701 660T754 573L692 548Q666 615 609 655T467 696Q397 696 340 669T240 593T175 481T152 342Q152 253 185
188T279 86T418 50Q504 50 567 91T667 199L726 170Q705 126 661 84T556 15T418 -12Z" />
<glyph unicode="D" horiz-adv-x="746" d="M57 0L161 745H385Q485 745 558 704T672 589T712 415Q712 329 686 254T608 122T482 33T314 0H57ZM130 60H317Q391 60 451 87T554 162T621 274T645 411Q645 496 613 557T521 652T378 685H218L130 60Z" />
<glyph unicode="E" horiz-adv-x="614" d="M57 0L161 745H631L623 685H218L178 404H563L555 344H170L130 60H535L527 0H57Z" />
<glyph unicode="F" horiz-adv-x="588" d="M57 0L161 745H616L608 685H218L178 404H533L525 344H170L122 0H57Z" />
<glyph unicode="G" horiz-adv-x="834" d="M420 -12Q348 -12 287 13T182 86T112 198T87 343Q87 430 116 505T198 637T321 725T472 757Q550 757 609 730T706 661T760 574L699 546Q674 615 615 655T470 696Q400 696 342 669T241 593T175 482T152 344Q152 253 187
187T284 86T425 50Q503 50 565 84T667 179T715 315L719 350L744 319H443L449 377H785L780 321Q774 251 745 191T668 85T557 14T420 -12Z" />
<glyph unicode="H" horiz-adv-x="738" d="M57 0L161 745H226L179 406H599L646 745H711L607 0H542L591 346H171L122 0H57Z" />
<glyph unicode="I" horiz-adv-x="253" d="M57 0L161 745H226L122 0H57Z" />
<glyph unicode="J" horiz-adv-x="382" d="M24 0L33 65H67Q128 65 167 100T214 200L291 745H356L279 198Q271 137 242 93T167 24T63 0H24Z" />
<glyph unicode="K" horiz-adv-x="654" d="M57 0L161 745H226L164 298L143 307L598 745H683L334 406L343 452L600 0H526L307 382L155 233L122 0H57Z" />
<glyph unicode="L" horiz-adv-x="533" d="M57 0L161 745H226L130 60H465L457 0H57Z" />
<glyph unicode="M" horiz-adv-x="828" d="M57 0L161 745H216L433 331H406L746 745H801L697 0H632L723 650L743 641L412 238H409L199 641L213 650L122 0H57Z" />
<glyph unicode="N" horiz-adv-x="738" d="M57 0L161 745H216L573 98H556L646 745H711L607 0H552L194 651H213L122 0H57Z" />
<glyph unicode="O" horiz-adv-x="884" d="M432 -12Q359 -12 297 14T187 87T114 199T87 344Q87 430 117 504T200 636T326 725T481 757Q555 757 618 732T728 659T801 546T827 402Q827 316 797 241T714 109T588 20T432 -12ZM433 50Q504 50 564 78T668 155T737 267T762
400Q762 482 728 549T631 656T482 696Q410 696 350 668T246 590T177 478T152 345Q152 264 187 197T285 90T433 50Z" />
<glyph unicode="P" horiz-adv-x="642" d="M57 0L161 745H399Q464 745 513 720T589 647T617 535Q617 468 585 414T494 327T356 295H163L122 0H57ZM172 355H360Q418 355 461 379T528 445T552 536Q552 605 510 645T395 685H218L172 355Z" />
<glyph unicode="Q" horiz-adv-x="884" d="M432 -12Q359 -12 297 14T187 87T114 199T87 344Q87 430 117 504T200 636T326 725T482 757Q555 757 618 732T728 659T801 546T827 402Q827 316 797 241T714 109T588 20T432 -12ZM433 50Q504 50 564 78T668 155T737 267T762
400Q762 482 728 549T631 656T482 696Q410 696 350 668T246 590T177 478T152 346Q152 264 187 197T285 90T433 50ZM619 -90L416 298H487L689 -90H619Z" />
<glyph unicode="R" horiz-adv-x="640" d="M57 0L161 745H399Q464 745 513 720T589 647T617 535Q617 479 595 432T531 351T432 304L564 0H492L351 328L401 295H163L122 0H57ZM172 355H360Q418 355 461 379T528 445T552 536Q552 605 510 645T395 685H218L172 355Z" />
<glyph unicode="S" horiz-adv-x="644" d="M311 -12Q245 -12 191 12T99 81T49 182L109 201Q128 126 182 86T314 46Q371 46 411 65T474 119T497 196Q497 243 471 274T394 320L261 360Q192 382 156 429T119 543Q119 602 150 651T235 728T357 757Q419 757 468 734T549
671T593 580L534 561Q517 626 470 663T356 700Q306 700 267 680T205 626T182 547Q182 500 208 468T294 417L412 381Q486 358 523 312T561 199Q561 141 530 93T443 17T311 -12Z" />
<glyph unicode="T" horiz-adv-x="514" d="M189 0L285 685H76L84 745H564L556 685H350L254 0H189Z" />
<glyph unicode="U" horiz-adv-x="696" d="M315 -12Q237 -12 183 21T103 114T88 249L158 745H223L153 244Q145 186 163 142T222 73T318 48Q375 48 421 72T499 142T539 246L608 745H673L603 245Q592 169 553 111T452 21T315 -12Z" />
<glyph unicode="V" horiz-adv-x="653" d="M257 0L84 745H151L305 59H285L631 745H704L323 0H257Z" />
<glyph unicode="W" horiz-adv-x="986" d="M199 0L84 745H150L250 61L227 62L528 745H593L698 62L674 61L968 745H1037L715 0H648L542 688H566L265 0H199Z" />
<glyph unicode="X" horiz-adv-x="594" d="M-21 0L275 384L94 745H166L335 402L298 405L553 745H635L353 376L540 0H468L293 356L331 353L59 0H-21Z" />
<glyph unicode="Y" horiz-adv-x="624" d="M243 0L290 340L84 745H153L341 383L311 385L596 745H675L356 340L309 0H243Z" />
<glyph unicode="Z" horiz-adv-x="596" d="M-9 0L-4 42L526 685H113L121 745H625L620 703L91 60H539L531 0H-9Z" />
<glyph unicode="[" horiz-adv-x="299" d="M32 -135L156 745H341L333 688H213L105 -77H225L217 -135H32Z" />
<glyph unicode="\" horiz-adv-x="410" d="M285 -120L63 705H131L353 -120H285Z" />
<glyph unicode="]" horiz-adv-x="298" d="M-31 -135L-23 -77H97L205 688H85L93 745H278L154 -135H-31Z" />
<glyph unicode="^" horiz-adv-x="602" d="M129 427L341 745H394L518 427H452L349 699H382L201 427H129Z" />
<glyph unicode="_" horiz-adv-x="573" d="M29 -57L37 0H462L454 -57H29Z" />
<glyph unicode="`" horiz-adv-x="341" d="M266 640L177 790H259L326 640H266Z" />
<glyph unicode="a" horiz-adv-x="573" d="M209 -12Q164 -12 127 4T66 52T43 130Q43 176 66 211T131 271T231 304L451 340L446 284L245 251Q181 241 144 210T106 132Q106 90 136 67T216 43Q271 43 316 70T390 142T427 242L443 358Q449 399 433 427T387 471T317
486Q265 486 223 461T154 395L102 427Q120 459 153 485T228 527T319 543Q376 543 420 519T488 453T503 353L453 0H393L408 111L418 105Q401 73 370 47T297 4T209 -12Z" />
<glyph unicode="b" horiz-adv-x="671" d="M331 -12Q258 -12 199 25T114 126L125 135L107 0H46L152 757H213L162 397L142 417Q176 475 235 509T366 543Q439 543 494 509T580 418T611 287Q611 226 590 172T530 76T441 12T331 -12ZM329 48Q393 48 441 81T518 168T547
287Q547 345 523 389T458 458T361 483Q299 483 250 451T172 365T143 248Q143 190 167 145T233 74T329 48Z" />
<glyph unicode="c" horiz-adv-x="616" d="M306 -12Q236 -12 181 21T93 113T61 246Q61 308 83 362T143 457T233 520T343 543Q393 543 435 526T508 480T555 412L501 386Q480 432 439 458T343 485Q280 485 230 452T152 365T124 245Q124 185 148 141T215 72T309 47Q365
47 410 74T483 149L535 118Q514 81 480 52T401 5T306 -12Z" />
<glyph unicode="d" horiz-adv-x="672" d="M306 -12Q234 -12 179 22T92 114T61 246Q61 307 82 360T141 455T230 519T341 543Q416 543 472 508T555 410L547 397L597 757H658L552 0H492L510 135L530 120Q498 58 438 23T306 -12ZM308 48Q371 48 421 81T500 168T529
286Q529 345 504 389T437 458T342 483Q280 483 231 451T153 364T125 244Q125 188 148 144T212 74T308 48Z" />
<glyph unicode="e" horiz-adv-x="623" d="M311 -12Q239 -12 183 22T94 114T62 247Q62 307 82 360T140 455T228 519T337 543Q407 543 458 511T537 426T565 308Q565 293 563 276T558 247H97L101 302H527L499 282Q510 340 491 386T432 460T337 487Q272 487 224 454T150
364T123 237Q123 180 148 137T215 69T311 44Q369 44 414 72T490 146L540 117Q519 80 485 51T406 5T311 -12Z" />
<glyph unicode="f" horiz-adv-x="393" d="M100 0L166 474H59L67 531H174L181 580Q190 638 218 677T286 737T370 757Q384 757 395 756T416 753L413 698Q405 700 395 700T379 701Q325 701 288 671T241 576L235 531H367L359 474H227L161 0H100Z" />
<glyph unicode="g" horiz-adv-x="665" d="M273 -220Q216 -220 172 -203T99 -156T55 -89L110 -66Q127 -108 169 -134T278 -161Q324 -161 369 -143T446 -86T486 10L506 155L525 140Q493 78 434 43T304 8Q236 8 181 40T95 129T63 257Q63 316 84 367T142 458T230 520T339
543Q412 543 467 508T549 415L540 397L559 531H619L546 6Q537 -60 498 -111T401 -191T273 -220ZM307 68Q368 68 416 99T494 182T523 294Q523 348 500 391T436 458T340 483Q281 483 232 453T155 371T127 257Q127 204 150 161T214 93T307 68Z" />
<glyph unicode="h" horiz-adv-x="573" d="M46 0L152 757H212L166 424L151 430Q176 483 226 513T336 543Q392 543 434 517T498 444T510 335L464 0H403L449 332Q459 404 424 444T327 484Q281 484 244 463T182 404T151 318L107 0H46Z" />
<glyph unicode="i" horiz-adv-x="227" d="M46 0L121 531H181L107 0H46ZM135 635L150 745H211L196 635H135Z" />
<glyph unicode="j" horiz-adv-x="228" d="M-80 -220Q-90 -220 -102 -218T-123 -214L-119 -160Q-110 -161 -100 -162T-82 -163Q-35 -163 -1 -135T40 -54L123 531H183L100 -58Q93 -111 68 -147T4 -201T-80 -220ZM137 635L152 745H213L198 635H137Z" />
<glyph unicode="k" horiz-adv-x="544" d="M46 0L152 757H213L137 216L101 219L458 531H546L302 317L490 0H419L240 298L276 297L111 149L133 190L107 0H46Z" />
<glyph unicode="l" horiz-adv-x="227" d="M46 0L152 757H213L107 0H46Z" />
<glyph unicode="m" horiz-adv-x="910" d="M46 0L120 531H180L166 427L157 443Q184 489 231 516T331 543Q393 543 439 507T498 408L480 410Q505 473 560 508T676 543Q730 543 771 517T834 444T847 335L801 0H741L787 332Q794 380 780 414T737 466T669 484Q627 484
590 464T529 407T498 324L453 0H393L439 332Q446 380 432 414T390 466T322 484Q278 484 242 463T181 404T150 318L106 0H46Z" />
<glyph unicode="n" horiz-adv-x="572" d="M46 0L120 531H180L165 424L151 430Q175 483 225 513T336 543Q392 543 434 517T498 444T510 335L463 0H403L449 332Q459 404 424 444T327 484Q280 484 243 463T181 404T150 318L106 0H46Z" />
<glyph unicode="o" horiz-adv-x="661" d="M315 -12Q243 -12 186 21T95 114T61 248Q61 309 82 362T143 456T235 520T347 543Q421 543 478 510T568 419T601 285Q601 224 579 170T518 75T426 11T315 -12ZM314 47Q377 47 427 80T507 167T537 286Q537 343 513 388T446
458T348 484Q286 484 236 452T155 366T125 247Q125 190 149 145T216 73T314 47Z" />
<glyph unicode="p" horiz-adv-x="671" d="M18 -200L120 531H181L162 397L142 417Q176 475 235 509T366 543Q439 543 494 509T580 418T611 287Q611 226 590 172T530 76T441 12T331 -12Q258 -12 199 25T114 126L125 135L79 -200H18ZM329 48Q393 48 441 81T518 168T547
287Q547 345 523 389T458 458T361 483Q299 483 250 451T172 365T143 248Q143 190 167 145T233 74T329 48Z" />
<glyph unicode="q" horiz-adv-x="673" d="M465 -200L510 135L530 120Q498 58 438 23T306 -12Q234 -12 179 22T92 114T61 246Q61 307 82 360T141 455T230 519T341 543Q416 543 472 508T555 410L547 397L566 531H626L525 -200H465ZM308 48Q371 48 421 81T500 168T529
286Q529 345 504 389T437 458T342 483Q280 483 231 451T153 364T125 244Q125 188 148 144T212 74T308 48Z" />
<glyph unicode="r" horiz-adv-x="340" d="M46 0L120 531H181L167 432L156 441Q180 486 225 512T328 538H361L353 478H312Q247 478 205 436T151 320L106 0H46Z" />
<glyph unicode="s" horiz-adv-x="508" d="M236 -12Q187 -12 145 5T74 54T30 128L84 149Q103 99 143 72T238 44Q295 44 331 73T367 146Q367 176 347 196T285 228L204 251Q144 268 114 301T84 382Q84 427 108 463T174 521T268 543Q336 543 387 508T453 415L398 394Q382
439 348 463T267 488Q215 488 181 460T146 389Q146 360 164 341T220 310L306 285Q361 270 395 236T430 147Q430 102 405 66T335 9T236 -12Z" />
<glyph unicode="t" horiz-adv-x="385" d="M242 -6Q174 -6 143 32T121 143L167 474H67L76 531H111Q141 531 160 550T184 600L192 655H253L236 531H351L343 474H228L181 139Q178 117 181 97T200 64T251 51Q261 51 272 52T291 54L287 -2Q276 -5 263 -5T242 -6Z" />
<glyph unicode="u" horiz-adv-x="573" d="M237 -12Q182 -12 139 14T75 88T63 204L110 531H170L123 200Q116 151 130 117T175 65T246 47Q293 47 330 68T391 128T422 214L467 531H527L453 0H393L407 108L422 101Q397 49 348 19T237 -12Z" />
<glyph unicode="v" horiz-adv-x="518" d="M190 0L54 531H119L237 53H214L468 531H539L251 0H190Z" />
<glyph unicode="w" horiz-adv-x="783" d="M161 0L54 531H119L210 50H184L397 531H458L535 50H507L734 531H804L547 0H485L412 464H430L223 0H161Z" />
<glyph unicode="x" horiz-adv-x="484" d="M-21 0L206 268L59 531H131L267 286L225 290L424 531H505L281 261L427 0H354L221 244L261 240L59 0H-21Z" />
<glyph unicode="y" horiz-adv-x="534" d="M21 -220Q6 -220 -10 -218T-42 -209L-38 -155Q-25 -157 -11 -159T16 -161Q50 -160 74 -150T119 -117T160 -59L211 28L205 -28L58 532H122L247 49H221L485 532H555L221 -76Q203 -109 176 -142T110 -198T21 -220Z" />
<glyph unicode="z" horiz-adv-x="443" d="M-9 0L-3 48L389 502L401 474H75L84 531H456L450 484L57 29L45 58H391L384 0H-9Z" />
<glyph unicode="{" horiz-adv-x="305" d="M193 -135Q134 -135 102 -98T78 1L106 200Q111 234 98 255T49 276H21L29 334H57Q92 334 111 355T135 411L163 609Q171 670 214 707T316 745H347L339 688H308Q276 688 255 666T228 610L201 413Q197 382 183 355T141 305Q162
284 168 256T170 198L142 0Q138 -33 153 -55T201 -77H232L224 -135H193Z" />
<glyph unicode="|" horiz-adv-x="286" d="M46 -190L192 845H257L111 -190H46Z" />
<glyph unicode="}" horiz-adv-x="304" d="M-31 -135L-23 -77H8Q41 -77 62 -56T89 0L116 198Q120 227 134 255T175 305Q155 327 148 353T146 413L174 610Q179 644 164 666T116 688H85L93 745H124Q183 745 215 708T239 609L211 411Q206 377 219 356T268 334H295L287
276H259Q225 276 206 255T181 200L153 1Q145 -60 103 -97T0 -135H-31Z" />
<glyph unicode="~" horiz-adv-x="602" d="M394 212Q360 212 338 223T299 250T263 276T218 288Q189 288 166 271T133 214H78Q87 278 127 311T215 345Q249 345 271 334T311 307T347 281T391 269Q419 269 441 286T474 343H529Q519 279 481 246T394 212Z" />
<glyph unicode="&#xa0;" horiz-adv-x="165" />
<glyph unicode="&#xa1;" horiz-adv-x="270" d="M36 -214L115 320H172L101 -214H36ZM125 431L139 531H206L193 431H125Z" />
<glyph unicode="&#xa2;" horiz-adv-x="616" d="M321 96Q251 96 196 129T108 220T76 354Q76 416 98 470T158 564T248 628T358 651Q408 651 450 634T523 588T570 519L516 493Q495 540 454 566T358 592Q295 592 245 559T167 472T139 353Q139 293 163 248T230 179T324
154Q380 154 425 181T498 256L550 226Q529 188 495 159T416 113T321 96ZM253 0L358 745H416L311 0H253Z" />
<glyph unicode="&#xa3;" horiz-adv-x="647" d="M11 0L19 58H119L187 539Q196 605 230 654T318 730T437 757Q498 757 544 734T616 668T641 563L581 554Q582 625 544 662T437 700Q363 700 313 656T252 535L185 58H528L520 0H11ZM59 351L67 406H417L409 351H59Z" />
<glyph unicode="&#xa4;" horiz-adv-x="600" d="M84 37L48 77L131 152Q116 174 109 199T102 249Q102 285 116 320T155 387L88 462L132 502L199 427Q227 446 259 456T321 467Q352 467 381 457T434 427L517 502L553 462L471 387Q485 363 491 339T498 289Q498 253
485 218T446 152L513 77L469 37L401 112Q373 92 342 82T280 72Q252 72 222 81T166 112L84 37ZM286 134Q327 134 361 155T416 210T437 283Q437 318 421 345T378 388T315 405Q275 405 241 384T185 329T163 256Q163 222 179 195T224 151T286 134Z" />
<glyph unicode="&#xa5;" horiz-adv-x="624" d="M243 0L290 340L84 745H153L341 383L311 385L596 745H675L356 340L309 0H243ZM143 308L151 363H500L493 308H143ZM121 153L129 208H478L471 153H121Z" />
<glyph unicode="&#xa6;" horiz-adv-x="286" d="M133 428L192 845H257L198 428H133ZM46 -190L105 228H170L111 -190H46Z" />
<glyph unicode="&#xa7;" horiz-adv-x="533" d="M228 -97Q152 -97 96 -59T19 47L76 73Q97 19 139 -10T235 -40Q275 -40 306 -26T355 14T374 69Q374 93 362 110T330 138T286 157L202 182Q138 201 107 235T76 316Q76 364 102 403T173 465T273 489L267 446Q233 446
204 431T158 389T141 330Q141 307 152 290T181 262T221 245L311 218Q373 199 406 162T439 76Q439 28 412 -11T336 -74T228 -97ZM266 171L270 214Q310 214 342 230T393 273T412 334Q412 359 400 376T368 406T325 425L240 450Q175 469 145 504T114 585Q114 633 140
672T212 734T312 757Q380 757 433 721T503 625L444 599Q427 646 390 673T304 700Q269 700 241 686T196 649T179 595Q179 573 190 557T219 531T259 513L349 486Q410 468 443 431T477 345Q477 296 449 257T373 195T266 171Z" />
<glyph unicode="&#xa8;" horiz-adv-x="417" d="M156 640L168 728H253L241 640H156ZM321 640L333 728H418L406 640H321Z" />
<glyph unicode="&#xa9;" horiz-adv-x="898" d="M440 -12Q363 -12 297 15T182 92T106 206T79 347Q79 431 111 505T201 635T332 724T490 757Q567 757 632 730T747 653T823 538T850 398Q850 313 817 239T727 109T596 20T440 -12ZM440 47Q511 47 574 74T685 150T762
262T790 399Q790 462 768 516T705 611T609 675T489 698Q418 698 355 671T243 595T167 483T139 347Q139 263 178 195T285 87T440 47ZM456 163Q401 163 359 188T293 257T269 358Q269 423 297 473T374 553T482 582Q525 582 558 567T614 529T644 478L590 454Q579 485
552 506T482 527Q438 527 404 506T349 446T329 356Q329 295 364 257T457 218Q500 218 531 239T577 293L630 266Q618 239 593 216T532 178T456 163Z" />
<glyph unicode="&#xaa;" horiz-adv-x="457" d="M210 364Q161 364 126 390T90 465Q90 498 107 523T154 565T225 588L371 612L366 562L236 540Q198 534 175 516T152 468Q152 442 170 428T220 413Q255 413 283 430T330 475T353 537L365 623Q370 663 345 682T285 702Q250
702 222 685T178 640L130 669Q149 706 192 730T288 755Q330 755 363 738T413 690T424 620L389 372H331L341 446L354 442Q332 406 294 385T210 364Z" />
<glyph unicode="&#xab;" horiz-adv-x="511" d="M155 81L30 269L208 457H281L99 263L219 81H155ZM383 81L258 269L436 457H509L327 263L447 81H383Z" />
<glyph unicode="&#xac;" horiz-adv-x="602" d="M460 40L485 221H45L53 281H553L520 40H460Z" />
<glyph unicode="&#xad;" horiz-adv-x="483" d="M70 237L78 295H413L405 237H70Z" />
<glyph unicode="&#xae;" horiz-adv-x="640" d="M341 272Q273 272 218 304T132 390T100 512Q100 567 121 616T181 703T268 762T374 784Q442 784 496 752T582 666T614 545Q614 489 592 440T532 353T445 294T341 272ZM341 323Q401 323 451 353T532 433T563 545Q563
598 539 640T471 708T373 733Q313 733 262 703T181 623T151 512Q151 458 175 416T243 348T341 323ZM245 394L283 664H377Q416 664 440 644T465 584Q465 554 451 533T413 501L467 394H410L362 492H311L297 394H245ZM317 537H369Q389 537 402 550T416 583Q416 599
405 608T376 618H328L317 537Z" />
<glyph unicode="&#xaf;" horiz-adv-x="437" d="M159 660L167 715H427L419 660H159Z" />
<glyph unicode="&#xb0;" horiz-adv-x="462" d="M269 463Q229 463 198 480T149 528T131 598Q131 643 152 679T210 736T290 757Q329 757 360 740T409 691T427 621Q427 577 406 542T349 485T269 463ZM272 513Q299 513 322 526T361 563T376 617Q376 658 349 682T285
707Q243 707 213 677T182 602Q182 561 208 537T272 513Z" />
<glyph unicode="&#xb1;" horiz-adv-x="602" d="M255 145L281 331H61L69 391H290L316 575H376L350 391H569L561 331H342L316 145H255ZM14 0L23 60H523L514 0H14Z" />
<glyph unicode="&#xb2;" horiz-adv-x="442" d="M51 223L55 266L226 432Q271 476 300 506T344 563T358 620Q358 655 335 676T270 698Q226 698 193 672T142 599L88 616Q109 681 158 717T271 753Q314 753 347 737T400 692T420 623Q420 585 403 552T359 489T300 428L143
277H396L389 223H51Z" />
<glyph unicode="&#xb3;" horiz-adv-x="432" d="M216 215Q174 215 138 230T79 274T47 341L102 361Q112 317 143 294T219 270Q274 270 309 304T345 392Q345 440 316 466T239 493Q230 493 219 492T197 487L187 515L347 691H107L115 745H428L422 696L266 523L261 540Q305
541 337 521T388 468T407 392Q407 342 382 302T313 239T216 215Z" />
<glyph unicode="&#xb4;" horiz-adv-x="341" d="M156 640L267 790H349L216 640H156Z" />
<glyph unicode="&#xb5;" horiz-adv-x="572" d="M15 -140L109 531H170L122 195Q116 148 130 115T174 65T245 47Q292 47 329 68T391 128T422 214L467 531H527L452 0H392L406 108L415 91Q389 43 342 16T236 -12Q189 -12 150 8T88 63L106 79L76 -140H15Z" />
<glyph unicode="&#xb6;" horiz-adv-x="378" d="M152 -100L227 438Q182 438 150 458T103 513T94 592Q100 636 124 671T186 725T270 745H335L217 -100H152Z" />
<glyph unicode="&#xb7;" horiz-adv-x="274" d="M97 220L111 320H178L164 220H97Z" />
<glyph unicode="&#xb8;" horiz-adv-x="382" d="M135 -225Q108 -225 82 -215T40 -187L63 -144Q77 -160 96 -168T135 -177Q159 -177 176 -163T193 -127Q193 -104 169 -92T101 -75L137 10H186L164 -43Q207 -52 229 -73T251 -124Q251 -152 235 -175T193 -211T135 -225Z" />
<glyph unicode="&#xb9;" horiz-adv-x="298" d="M117 223L183 691H84L92 745H253L180 223H117Z" />
<glyph unicode="&#xba;" horiz-adv-x="508" d="M284 364Q233 364 192 388T127 453T102 548Q102 606 129 652T203 727T307 755Q359 755 400 732T465 667T489 572Q489 515 462 468T388 392T284 364ZM284 420Q324 420 356 441T408 497T427 573Q427 628 393 664T307
700Q267 700 235 679T183 624T164 547Q164 511 179 482T222 437T284 420Z" />
<glyph unicode="&#xbb;" horiz-adv-x="511" d="M231 81L413 275L294 457H357L483 269L304 81H231ZM3 81L185 275L66 457H129L255 269L76 81H3Z" />
<glyph unicode="&#xbc;" horiz-adv-x="867" d="M113 328L164 694H85L92 745H231L172 328H113ZM81 0L631 745H702L152 0H81ZM675 0L688 95H486L492 144L731 418H790L752 144H807L800 95H745L732 0H675ZM535 123L528 144H695L727 370L744 365L535 123Z" />
<glyph unicode="&#xbd;" horiz-adv-x="844" d="M113 328L164 694H85L92 745H231L172 328H113ZM81 0L631 745H702L152 0H81ZM487 0L491 42L624 170Q661 206 683 229T716 272T727 314Q727 340 710 355T663 371Q630 371 606 352T568 299L517 316Q533 367 573 395T665
424Q717 424 751 396T786 318Q786 288 773 261T738 211T692 165L572 51H768L760 0H487Z" />
<glyph unicode="&#xbe;" horiz-adv-x="957" d="M196 321Q162 321 133 333T85 368T59 423L112 441Q119 409 142 391T199 373Q240 373 266 399T293 464Q293 500 271 519T214 539Q206 539 196 538T177 533L167 560L293 695H108L115 745H369L363 698L239 565L236 583Q289
583 320 549T351 465Q351 424 330 392T274 340T196 321ZM171 0L721 745H792L242 0H171ZM765 0L778 95H576L582 144L821 418H880L842 144H897L890 95H835L822 0H765ZM625 123L618 144H785L817 370L834 365L625 123Z" />
<glyph unicode="&#xbf;" horiz-adv-x="487" d="M182 -226Q128 -226 87 -204T23 -145T0 -64Q0 -14 23 25T80 96T145 157Q182 192 206 229T240 313L242 320H304L302 313Q288 247 257 200T180 113Q154 90 128 65T83 8T65 -61Q65 -103 96 -136T186 -169Q245 -169 290
-132T352 -32L408 -44Q395 -99 363 -140T284 -203T182 -226ZM253 431L267 531H334L320 431H253Z" />
<glyph unicode="&#xc0;" horiz-adv-x="648" d="M-21 0L357 745H424L594 0H527L485 190H147L52 0H-21ZM177 250H472L374 694L398 691L177 250ZM377 854L288 1004H370L437 854H377Z" />
<glyph unicode="&#xc1;" horiz-adv-x="648" d="M-21 0L357 745H424L594 0H527L485 190H147L52 0H-21ZM177 250H472L374 694L398 691L177 250ZM377 854L488 1004H570L437 854H377Z" />
<glyph unicode="&#xc2;" horiz-adv-x="648" d="M-21 0L357 745H424L594 0H527L485 190H147L52 0H-21ZM177 250H472L374 694L398 691L177 250ZM240 854L384 1004H448L549 854H484L414 956L315 854H240Z" />
<glyph unicode="&#xc3;" horiz-adv-x="648" d="M-21 0L357 745H424L594 0H527L485 190H147L52 0H-21ZM177 250H472L374 694L398 691L177 250ZM465 854Q440 854 425 864T401 887T382 911T355 921Q338 921 326 907T309 858H258Q263 894 277 920T314 959T364 973Q390
973 404 963T427 940T447 916T474 906Q494 906 507 922T524 969H574Q567 918 538 886T465 854Z" />
<glyph unicode="&#xc4;" horiz-adv-x="648" d="M-21 0L357 745H424L594 0H527L485 190H147L52 0H-21ZM177 250H472L374 694L398 691L177 250ZM283 854L295 942H380L368 854H283ZM448 854L460 942H545L533 854H448Z" />
<glyph unicode="&#xc5;" horiz-adv-x="648" d="M-21 0L357 745H424L594 0H527L485 190H147L52 0H-21ZM177 250H472L374 694L398 691L177 250ZM403 834Q366 834 341 856T315 919Q315 951 330 977T373 1020T432 1036Q470 1036 495 1013T521 951Q521 919 506 893T463
850T403 834ZM410 879Q436 879 455 898T474 944Q474 965 460 977T426 990Q400 990 382 971T363 925Q363 904 376 892T410 879Z" />
<glyph unicode="&#xc6;" horiz-adv-x="986" d="M-21 0L357 745H1003L995 685H590L550 404H935L927 344H542L502 60H907L899 0H429L455 190H147L52 0H-21ZM177 250H464L525 685H395L177 250Z" />
<glyph unicode="&#xc7;" horiz-adv-x="800" d="M418 -12Q349 -12 289 12T184 82T113 193T87 341Q87 428 115 503T195 636T317 725T468 757Q545 757 604 730T701 660T754 573L692 548Q666 615 609 655T467 696Q397 696 340 669T240 593T175 481T152 342Q152 253
185 188T279 86T418 50Q504 50 567 91T667 199L726 170Q705 126 661 84T556 15T418 -12ZM397 -225Q370 -225 344 -215T302 -187L325 -144Q339 -160 358 -168T397 -177Q421 -177 438 -163T455 -127Q455 -104 431 -92T363 -75L399 10H448L426 -43Q469 -52 491 -73T513
-124Q513 -152 497 -175T455 -211T397 -225Z" />
<glyph unicode="&#xc8;" horiz-adv-x="614" d="M57 0L161 745H631L623 685H218L178 404H563L555 344H170L130 60H535L527 0H57ZM382 854L293 1004H375L442 854H382Z" />
<glyph unicode="&#xc9;" horiz-adv-x="614" d="M57 0L161 745H631L623 685H218L178 404H563L555 344H170L130 60H535L527 0H57ZM382 854L493 1004H575L442 854H382Z" />
<glyph unicode="&#xca;" horiz-adv-x="614" d="M57 0L161 745H631L623 685H218L178 404H563L555 344H170L130 60H535L527 0H57ZM245 854L389 1004H453L554 854H489L419 956L320 854H245Z" />
<glyph unicode="&#xcb;" horiz-adv-x="614" d="M57 0L161 745H631L623 685H218L178 404H563L555 344H170L130 60H535L527 0H57ZM288 854L300 942H385L373 854H288ZM453 854L465 942H550L538 854H453Z" />
<glyph unicode="&#xcc;" horiz-adv-x="253" d="M57 0L161 745H226L122 0H57ZM180 854L91 1004H173L240 854H180Z" />
<glyph unicode="&#xcd;" horiz-adv-x="253" d="M57 0L161 745H226L122 0H57ZM180 854L291 1004H373L240 854H180Z" />
<glyph unicode="&#xce;" horiz-adv-x="253" d="M57 0L161 745H226L122 0H57ZM43 854L187 1004H251L352 854H287L217 956L118 854H43Z" />
<glyph unicode="&#xcf;" horiz-adv-x="253" d="M57 0L161 745H226L122 0H57ZM86 854L98 942H183L171 854H86ZM251 854L263 942H348L336 854H251Z" />
<glyph unicode="&#xd0;" horiz-adv-x="746" d="M40 344L48 402H343L335 344H40ZM57 0L161 745H385Q485 745 558 704T672 589T712 415Q712 329 686 254T608 122T482 33T314 0H57ZM130 60H317Q391 60 451 87T554 162T621 274T645 411Q645 496 613 557T521 652T378
685H218L130 60Z" />
<glyph unicode="&#xd1;" horiz-adv-x="738" d="M57 0L161 745H216L573 98H556L646 745H711L607 0H552L194 651H213L122 0H57ZM510 854Q485 854 470 864T446 887T427 911T400 921Q383 921 371 907T354 858H303Q308 894 322 920T359 959T409 973Q435 973 449 963T472
940T492 916T519 906Q539 906 552 922T569 969H619Q612 918 583 886T510 854Z" />
<glyph unicode="&#xd2;" horiz-adv-x="884" d="M432 -12Q359 -12 297 14T187 87T114 199T87 344Q87 430 117 504T200 636T326 725T481 757Q555 757 618 732T728 659T801 546T827 402Q827 316 797 241T714 109T588 20T432 -12ZM433 50Q504 50 564 78T668 155T737
267T762 400Q762 482 728 549T631 656T482 696Q410 696 350 668T246 590T177 478T152 345Q152 264 187 197T285 90T433 50ZM496 854L407 1004H489L556 854H496Z" />
<glyph unicode="&#xd3;" horiz-adv-x="884" d="M432 -12Q359 -12 297 14T187 87T114 199T87 344Q87 430 117 504T200 636T326 725T481 757Q555 757 618 732T728 659T801 546T827 402Q827 316 797 241T714 109T588 20T432 -12ZM433 50Q504 50 564 78T668 155T737
267T762 400Q762 482 728 549T631 656T482 696Q410 696 350 668T246 590T177 478T152 345Q152 264 187 197T285 90T433 50ZM495 854L606 1004H688L555 854H495Z" />
<glyph unicode="&#xd4;" horiz-adv-x="884" d="M432 -12Q359 -12 297 14T187 87T114 199T87 344Q87 430 117 504T200 636T326 725T481 757Q555 757 618 732T728 659T801 546T827 402Q827 316 797 241T714 109T588 20T432 -12ZM433 50Q504 50 564 78T668 155T737
267T762 400Q762 482 728 549T631 656T482 696Q410 696 350 668T246 590T177 478T152 345Q152 264 187 197T285 90T433 50ZM359 854L503 1004H567L668 854H603L533 956L434 854H359Z" />
<glyph unicode="&#xd5;" horiz-adv-x="884" d="M432 -12Q359 -12 297 14T187 87T114 199T87 344Q87 430 117 504T200 636T326 725T481 757Q555 757 618 732T728 659T801 546T827 402Q827 316 797 241T714 109T588 20T432 -12ZM433 50Q504 50 564 78T668 155T737
267T762 400Q762 482 728 549T631 656T482 696Q410 696 350 668T246 590T177 478T152 345Q152 264 187 197T285 90T433 50ZM583 854Q558 854 543 864T519 887T500 911T473 921Q456 921 444 907T427 858H376Q381 894 395 920T432 959T482 973Q508 973 522 963T545
940T565 916T592 906Q612 906 625 922T642 969H692Q685 918 656 886T583 854Z" />
<glyph unicode="&#xd6;" horiz-adv-x="884" d="M432 -12Q359 -12 297 14T187 87T114 199T87 344Q87 430 117 504T200 636T326 725T481 757Q555 757 618 732T728 659T801 546T827 402Q827 316 797 241T714 109T588 20T432 -12ZM433 50Q504 50 564 78T668 155T737
267T762 400Q762 482 728 549T631 656T482 696Q410 696 350 668T246 590T177 478T152 345Q152 264 187 197T285 90T433 50ZM401 854L413 942H498L486 854H401ZM566 854L578 942H663L651 854H566Z" />
<glyph unicode="&#xd7;" horiz-adv-x="602" d="M97 0L56 45L250 216L107 382L154 424L297 258L490 427L530 382L338 213L484 42L437 0L291 170L97 0Z" />
<glyph unicode="&#xd8;" horiz-adv-x="884" d="M59 0L773 745H857L143 0H59ZM432 -12Q359 -12 297 14T187 87T114 199T87 344Q87 430 117 504T200 636T326 725T482 757Q555 757 618 732T728 659T801 546T827 402Q827 316 797 241T714 109T588 20T432 -12ZM433
50Q504 50 564 78T668 155T737 267T762 400Q762 482 728 549T631 656T482 696Q410 696 350 668T246 590T177 478T152 346Q152 264 187 197T285 90T433 50Z" />
<glyph unicode="&#xd9;" horiz-adv-x="696" d="M315 -12Q237 -12 183 21T103 114T88 249L158 745H223L153 244Q145 186 163 142T222 73T318 48Q375 48 421 72T499 142T539 246L608 745H673L603 245Q592 169 553 111T452 21T315 -12ZM401 854L312 1004H394L461 854H401Z" />
<glyph unicode="&#xda;" horiz-adv-x="696" d="M315 -12Q237 -12 183 21T103 114T88 249L158 745H223L153 244Q145 186 163 142T222 73T318 48Q375 48 421 72T499 142T539 246L608 745H673L603 245Q592 169 553 111T452 21T315 -12ZM401 854L512 1004H594L461 854H401Z" />
<glyph unicode="&#xdb;" horiz-adv-x="696" d="M315 -12Q237 -12 183 21T103 114T88 249L158 745H223L153 244Q145 186 163 142T222 73T318 48Q375 48 421 72T499 142T539 246L608 745H673L603 245Q592 169 553 111T452 21T315 -12ZM264 854L408 1004H472L573
854H508L438 956L339 854H264Z" />
<glyph unicode="&#xdc;" horiz-adv-x="696" d="M315 -12Q237 -12 183 21T103 114T88 249L158 745H223L153 244Q145 186 163 142T222 73T318 48Q375 48 421 72T499 142T539 246L608 745H673L603 245Q592 169 553 111T452 21T315 -12ZM307 854L319 942H404L392 854H307ZM472
854L484 942H569L557 854H472Z" />
<glyph unicode="&#xdd;" horiz-adv-x="624" d="M243 0L290 340L84 745H153L341 383L311 385L596 745H675L356 340L309 0H243ZM365 854L476 1004H558L425 854H365Z" />
<glyph unicode="&#xde;" horiz-adv-x="654" d="M51 0L155 745H220L200 598H393Q460 598 509 572T584 499T611 389Q611 320 578 265T486 179T350 148H137L116 0H51ZM145 208H354Q410 208 453 232T521 297T546 390Q546 458 504 498T389 538H191L145 208Z" />
<glyph unicode="&#xdf;" horiz-adv-x="606" d="M36 -145L133 543Q143 610 177 658T262 731T373 757Q427 757 468 737T533 680T557 590Q557 550 541 509T491 436T401 385L403 404Q468 387 503 341T538 233Q538 201 525 161T482 84T400 24T268 0H212L220 58H272Q330
58 369 75T430 118T463 175T473 233Q473 295 433 330T321 366H263L271 424H318Q367 424 400 441T453 485T482 540T491 590Q491 639 459 669T370 700Q327 700 289 681T225 625T193 539L97 -145H36Z" />
<glyph unicode="&#xe0;" horiz-adv-x="573" d="M209 -12Q164 -12 127 4T66 52T43 130Q43 176 66 211T131 271T231 304L451 340L446 284L245 251Q181 241 144 210T106 132Q106 90 136 67T216 43Q271 43 316 70T390 142T427 242L443 358Q449 399 433 427T387 471T317
486Q265 486 223 461T154 395L102 427Q120 459 153 485T228 527T319 543Q376 543 420 519T488 453T503 353L453 0H393L408 111L418 105Q401 73 370 47T297 4T209 -12ZM310 640L221 790H303L370 640H310Z" />
<glyph unicode="&#xe1;" horiz-adv-x="573" d="M209 -12Q164 -12 127 4T66 52T43 130Q43 176 66 211T131 271T231 304L451 340L446 284L245 251Q181 241 144 210T106 132Q106 90 136 67T216 43Q271 43 316 70T390 142T427 242L443 358Q449 399 433 427T387 471T317
486Q265 486 223 461T154 395L102 427Q120 459 153 485T228 527T319 543Q376 543 420 519T488 453T503 353L453 0H393L408 111L418 105Q401 73 370 47T297 4T209 -12ZM310 640L421 790H503L370 640H310Z" />
<glyph unicode="&#xe2;" horiz-adv-x="573" d="M209 -12Q164 -12 127 4T66 52T43 130Q43 176 66 211T131 271T231 304L451 340L446 284L245 251Q181 241 144 210T106 132Q106 90 136 67T216 43Q271 43 316 70T390 142T427 242L443 358Q449 399 433 427T387 471T317
486Q265 486 223 461T154 395L102 427Q120 459 153 485T228 527T319 543Q376 543 420 519T488 453T503 353L453 0H393L408 111L418 105Q401 73 370 47T297 4T209 -12ZM173 640L317 790H381L482 640H417L347 742L248 640H173Z" />
<glyph unicode="&#xe3;" horiz-adv-x="573" d="M209 -12Q164 -12 127 4T66 52T43 130Q43 176 66 211T131 271T231 304L451 340L446 284L245 251Q181 241 144 210T106 132Q106 90 136 67T216 43Q271 43 316 70T390 142T427 242L443 358Q449 399 433 427T387 471T317
486Q265 486 223 461T154 395L102 427Q120 459 153 485T228 527T319 543Q376 543 420 519T488 453T503 353L453 0H393L408 111L418 105Q401 73 370 47T297 4T209 -12ZM398 640Q373 640 358 650T334 673T315 697T288 707Q271 707 259 693T242 644H191Q196 680 210
706T247 745T297 759Q323 759 337 749T360 726T380 702T407 692Q427 692 440 708T457 755H507Q500 704 471 672T398 640Z" />
<glyph unicode="&#xe4;" horiz-adv-x="573" d="M209 -12Q164 -12 127 4T66 52T43 130Q43 176 66 211T131 271T231 304L451 340L446 284L245 251Q181 241 144 210T106 132Q106 90 136 67T216 43Q271 43 316 70T390 142T427 242L443 358Q449 399 433 427T387 471T317
486Q265 486 223 461T154 395L102 427Q120 459 153 485T228 527T319 543Q376 543 420 519T488 453T503 353L453 0H393L408 111L418 105Q401 73 370 47T297 4T209 -12ZM216 640L228 728H313L301 640H216ZM381 640L393 728H478L466 640H381Z" />
<glyph unicode="&#xe5;" horiz-adv-x="573" d="M209 -12Q164 -12 127 4T66 52T43 130Q43 176 66 211T131 271T231 304L451 340L446 284L245 251Q181 241 144 210T106 132Q106 90 136 67T216 43Q271 43 316 70T390 142T427 242L443 358Q449 399 433 427T387 471T317
486Q265 486 223 461T154 395L102 427Q120 459 153 485T228 527T319 543Q376 543 420 519T488 453T503 353L453 0H393L408 111L418 105Q401 73 370 47T297 4T209 -12ZM336 620Q299 620 274 642T248 705Q248 737 263 763T306 806T365 822Q403 822 428 799T454 737Q454
705 439 679T396 636T336 620ZM343 665Q369 665 388 684T407 730Q407 751 393 763T359 776Q333 776 315 757T296 711Q296 690 309 678T343 665Z" />
<glyph unicode="&#xe6;" horiz-adv-x="995" d="M209 -12Q164 -12 127 4T66 52T43 130Q43 176 66 211T131 271T231 304L440 338L443 358Q448 399 432 427T386 471T317 486Q265 486 223 461T154 395L102 427Q120 459 153 485T228 527T319 543Q365 543 403 527T468
481T501 411L481 413Q518 472 577 507T709 543Q779 543 830 511T909 426T937 308Q937 293 935 276T930 247H495Q495 185 519 140T585 69T683 44Q741 44 786 72T862 146L912 117Q891 80 857 51T778 5T683 -12Q605 -12 546 27T458 133L474 148L453 0H393L410 120L417
101Q398 70 367 45T295 4T209 -12ZM216 43Q271 43 316 70T390 142T427 242L432 282L245 251Q181 241 144 210T106 132Q106 90 136 67T216 43ZM501 302H874Q879 355 858 397T798 463T709 487Q655 487 612 463T540 398T501 302Z" />
<glyph unicode="&#xe7;" horiz-adv-x="616" d="M306 -12Q236 -12 181 21T93 113T61 246Q61 308 83 362T143 457T233 520T343 543Q393 543 435 526T508 480T555 412L501 386Q480 432 439 458T343 485Q280 485 230 452T152 365T124 245Q124 185 148 141T215 72T309
47Q365 47 410 74T483 149L535 118Q514 81 480 52T401 5T306 -12ZM286 -225Q259 -225 233 -215T191 -187L214 -144Q228 -160 247 -168T286 -177Q310 -177 327 -163T344 -127Q344 -104 320 -92T252 -75L288 10H337L315 -43Q358 -52 380 -73T402 -124Q402 -152 386
-175T344 -211T286 -225Z" />
<glyph unicode="&#xe8;" horiz-adv-x="623" d="M311 -12Q239 -12 183 22T94 114T62 247Q62 307 82 360T140 455T228 519T337 543Q407 543 458 511T537 426T565 308Q565 293 563 276T558 247H97L101 302H527L499 282Q510 340 491 386T432 460T337 487Q272 487 224
454T150 364T123 237Q123 180 148 137T215 69T311 44Q369 44 414 72T490 146L540 117Q519 80 485 51T406 5T311 -12ZM335 640L246 790H328L395 640H335Z" />
<glyph unicode="&#xe9;" horiz-adv-x="623" d="M311 -12Q239 -12 183 22T94 114T62 247Q62 307 82 360T140 455T228 519T337 543Q407 543 458 511T537 426T565 308Q565 293 563 276T558 247H97L101 302H527L499 282Q510 340 491 386T432 460T337 487Q272 487 224
454T150 364T123 237Q123 180 148 137T215 69T311 44Q369 44 414 72T490 146L540 117Q519 80 485 51T406 5T311 -12ZM334 640L445 790H527L394 640H334Z" />
<glyph unicode="&#xea;" horiz-adv-x="623" d="M311 -12Q239 -12 183 22T94 114T62 247Q62 307 82 360T140 455T228 519T337 543Q407 543 458 511T537 426T565 308Q565 293 563 276T558 247H97L101 302H527L499 282Q510 340 491 386T432 460T337 487Q272 487 224
454T150 364T123 237Q123 180 148 137T215 69T311 44Q369 44 414 72T490 146L540 117Q519 80 485 51T406 5T311 -12ZM198 640L342 790H406L507 640H442L372 742L273 640H198Z" />
<glyph unicode="&#xeb;" horiz-adv-x="623" d="M311 -12Q239 -12 183 22T94 114T62 247Q62 307 82 360T140 455T228 519T337 543Q407 543 458 511T537 426T565 308Q565 293 563 276T558 247H97L101 302H527L499 282Q510 340 491 386T432 460T337 487Q272 487 224
454T150 364T123 237Q123 180 148 137T215 69T311 44Q369 44 414 72T490 146L540 117Q519 80 485 51T406 5T311 -12ZM240 640L252 728H337L325 640H240ZM405 640L417 728H502L490 640H405Z" />
<glyph unicode="&#xec;" horiz-adv-x="193" d="M29 0L104 531H164L90 0H29ZM119 640L30 790H112L179 640H119Z" />
<glyph unicode="&#xed;" horiz-adv-x="193" d="M29 0L104 531H164L90 0H29ZM375 640L486 790H568L435 640H375Z" />
<glyph unicode="&#xee;" horiz-adv-x="193" d="M29 0L104 531H164L90 0H29ZM-18 640L126 790H190L291 640H226L156 742L57 640H-18Z" />
<glyph unicode="&#xef;" horiz-adv-x="193" d="M29 0L104 531H164L90 0H29ZM25 640L37 728H122L110 640H25ZM190 640L202 728H287L275 640H190Z" />
<glyph unicode="&#xf0;" horiz-adv-x="687" d="M341 -12Q266 -12 209 21T120 112T88 242Q88 304 110 356T170 449T261 511T375 533Q416 533 456 521T531 480T586 400L564 372Q569 445 548 510T485 628T385 709T257 739Q230 739 202 735T145 720L132 775Q166 785
198 790T261 796Q354 796 423 758T539 656T609 512T632 348Q632 246 599 165T501 36T341 -12ZM341 47Q405 47 455 79T534 165T563 281Q563 336 540 379T474 448T375 474Q313 474 262 443T182 359T152 243Q152 187 177 143T245 73T341 47ZM298 588L301 639L596 742L592
690L298 588Z" />
<glyph unicode="&#xf1;" horiz-adv-x="572" d="M46 0L120 531H180L165 424L151 430Q175 483 225 513T336 543Q392 543 434 517T498 444T510 335L463 0H403L449 332Q459 404 424 444T327 484Q280 484 243 463T181 404T150 318L106 0H46ZM397 640Q372 640 357 650T333
673T314 697T287 707Q270 707 258 693T241 644H190Q195 680 209 706T246 745T296 759Q322 759 336 749T359 726T379 702T406 692Q426 692 439 708T456 755H506Q499 704 470 672T397 640Z" />
<glyph unicode="&#xf2;" horiz-adv-x="661" d="M315 -12Q243 -12 186 21T95 114T61 248Q61 309 82 362T143 456T235 520T347 543Q421 543 478 510T568 419T601 285Q601 224 579 170T518 75T426 11T315 -12ZM314 47Q377 47 427 80T507 167T537 286Q537 343 513
388T446 458T348 484Q286 484 236 452T155 366T125 247Q125 190 149 145T216 73T314 47ZM354 640L265 790H347L414 640H354Z" />
<glyph unicode="&#xf3;" horiz-adv-x="661" d="M315 -12Q243 -12 186 21T95 114T61 248Q61 309 82 362T143 456T235 520T347 543Q421 543 478 510T568 419T601 285Q601 224 579 170T518 75T426 11T315 -12ZM314 47Q377 47 427 80T507 167T537 286Q537 343 513
388T446 458T348 484Q286 484 236 452T155 366T125 247Q125 190 149 145T216 73T314 47ZM353 640L464 790H546L413 640H353Z" />
<glyph unicode="&#xf4;" horiz-adv-x="661" d="M315 -12Q243 -12 186 21T95 114T61 248Q61 309 82 362T143 456T235 520T347 543Q421 543 478 510T568 419T601 285Q601 224 579 170T518 75T426 11T315 -12ZM314 47Q377 47 427 80T507 167T537 286Q537 343 513
388T446 458T348 484Q286 484 236 452T155 366T125 247Q125 190 149 145T216 73T314 47ZM217 640L361 790H425L526 640H461L391 742L292 640H217Z" />
<glyph unicode="&#xf5;" horiz-adv-x="661" d="M315 -12Q243 -12 186 21T95 114T61 248Q61 309 82 362T143 456T235 520T347 543Q421 543 478 510T568 419T601 285Q601 224 579 170T518 75T426 11T315 -12ZM314 47Q377 47 427 80T507 167T537 286Q537 343 513
388T446 458T348 484Q286 484 236 452T155 366T125 247Q125 190 149 145T216 73T314 47ZM441 640Q416 640 401 650T377 673T358 697T331 707Q314 707 302 693T285 644H234Q239 680 253 706T290 745T340 759Q366 759 380 749T403 726T423 702T450 692Q470 692 483
708T500 755H550Q543 704 514 672T441 640Z" />
<glyph unicode="&#xf6;" horiz-adv-x="661" d="M315 -12Q243 -12 186 21T95 114T61 248Q61 309 82 362T143 456T235 520T347 543Q421 543 478 510T568 419T601 285Q601 224 579 170T518 75T426 11T315 -12ZM314 47Q377 47 427 80T507 167T537 286Q537 343 513
388T446 458T348 484Q286 484 236 452T155 366T125 247Q125 190 149 145T216 73T314 47ZM259 640L271 728H356L344 640H259ZM424 640L436 728H521L509 640H424Z" />
<glyph unicode="&#xf7;" horiz-adv-x="602" d="M45 221L53 281H553L545 221H45ZM230 0L243 91H310L298 0H230ZM288 410L300 500H368L355 410H288Z" />
<glyph unicode="&#xf8;" horiz-adv-x="661" d="M16 0L560 531H645L101 0H16ZM315 -12Q243 -12 186 21T95 114T61 248Q61 309 82 362T143 456T235 520T347 543Q421 543 478 510T568 419T601 285Q601 224 579 170T518 75T426 11T315 -12ZM314 47Q377 47 427 80T507
167T537 286Q537 343 513 388T446 458T348 484Q286 484 236 452T155 366T125 247Q125 190 149 145T216 73T314 47Z" />
<glyph unicode="&#xf9;" horiz-adv-x="573" d="M237 -12Q182 -12 139 14T75 88T63 204L110 531H170L123 200Q116 151 130 117T175 65T246 47Q293 47 330 68T391 128T422 214L467 531H527L453 0H393L407 108L422 101Q397 49 348 19T237 -12ZM310 640L221 790H303L370
640H310Z" />
<glyph unicode="&#xfa;" horiz-adv-x="573" d="M237 -12Q182 -12 139 14T75 88T63 204L110 531H170L123 200Q116 151 130 117T175 65T246 47Q293 47 330 68T391 128T422 214L467 531H527L453 0H393L407 108L422 101Q397 49 348 19T237 -12ZM309 640L420 790H502L369
640H309Z" />
<glyph unicode="&#xfb;" horiz-adv-x="573" d="M237 -12Q182 -12 139 14T75 88T63 204L110 531H170L123 200Q116 151 130 117T175 65T246 47Q293 47 330 68T391 128T422 214L467 531H527L453 0H393L407 108L422 101Q397 49 348 19T237 -12ZM173 640L317 790H381L482
640H417L347 742L248 640H173Z" />
<glyph unicode="&#xfc;" horiz-adv-x="573" d="M237 -12Q182 -12 139 14T75 88T63 204L110 531H170L123 200Q116 151 130 117T175 65T246 47Q293 47 330 68T391 128T422 214L467 531H527L453 0H393L407 108L422 101Q397 49 348 19T237 -12ZM215 640L227 728H312L300
640H215ZM380 640L392 728H477L465 640H380Z" />
<glyph unicode="&#xfd;" horiz-adv-x="534" d="M21 -220Q6 -220 -10 -218T-42 -209L-38 -155Q-25 -157 -11 -159T16 -161Q50 -160 74 -150T119 -117T160 -59L211 28L205 -28L58 532H122L247 49H221L485 532H555L221 -76Q203 -109 176 -142T110 -198T21 -220ZM290
640L401 790H483L350 640H290Z" />
<glyph unicode="&#xfe;" horiz-adv-x="671" d="M18 -200L150 745H211L162 397L142 417Q176 475 235 509T366 543Q439 543 494 509T580 418T611 287Q611 226 590 172T530 76T441 12T331 -12Q258 -12 199 25T114 126L125 135L79 -200H18ZM329 48Q393 48 441 81T518
168T547 287Q547 345 523 389T458 458T361 483Q299 483 250 451T172 365T143 248Q143 190 167 145T233 74T329 48Z" />
<glyph unicode="&#xff;" horiz-adv-x="534" d="M21 -220Q6 -220 -10 -218T-42 -209L-38 -155Q-25 -157 -11 -159T16 -161Q50 -160 74 -150T119 -117T160 -59L211 28L205 -28L58 532H122L247 49H221L485 532H555L221 -76Q203 -109 176 -142T110 -198T21 -220ZM196
640L208 728H293L281 640H196ZM361 640L373 728H458L446 640H361Z" />
<glyph unicode="&#x2013;" horiz-adv-x="558" d="M70 237L78 295H488L480 237H70Z" />
<glyph unicode="&#x2014;" horiz-adv-x="893" d="M70 237L78 295H823L815 237H70Z" />
<glyph unicode="&#x2018;" horiz-adv-x="259" d="M120 545L131 625Q138 676 166 711T237 757L232 724Q206 718 191 697T170 645H201L187 545H120Z" />
<glyph unicode="&#x2019;" horiz-adv-x="259" d="M118 533L123 566Q150 573 165 593T185 645H154L168 745H236L224 665Q218 614 190 579T118 533Z" />
<glyph unicode="&#x201a;" horiz-adv-x="259" d="M27 -112L32 -79Q59 -72 74 -52T94 0H63L77 100H145L133 20Q127 -31 99 -66T27 -112Z" />
<glyph unicode="&#x201c;" horiz-adv-x="399" d="M206 545L217 625Q224 676 252 711T323 757L318 724Q292 718 277 697T256 645H287L273 545H206ZM66 545L77 625Q84 676 112 711T183 757L178 724Q152 718 137 697T116 645H147L133 545H66Z" />
<glyph unicode="&#x201d;" horiz-adv-x="399" d="M206 533L211 566Q237 573 252 593T273 645H242L256 745H323L312 665Q305 614 277 579T206 533ZM66 533L71 566Q97 573 112 593T133 645H102L116 745H183L172 665Q165 614 137 579T66 533Z" />
<glyph unicode="&#x201e;" horiz-adv-x="399" d="M66 -112L71 -79Q97 -72 112 -52T133 0H102L116 100H183L172 20Q165 -31 137 -66T66 -112ZM206 -112L211 -79Q237 -72 252 -52T273 0H242L256 100H323L312 20Q305 -31 277 -66T206 -112Z" />
<glyph unicode="&#x2022;" horiz-adv-x="646" d="M297 48Q239 48 195 72T127 139T102 237Q102 306 136 363T229 454T359 488Q415 488 457 463T522 396T546 299Q546 249 526 204T472 124T392 68T297 48Z" />
<glyph unicode="&#x2039;" horiz-adv-x="283" d="M155 81L30 269L208 457H281L99 263L219 81H155Z" />
<glyph unicode="&#x203a;" horiz-adv-x="283" d="M3 81L185 275L66 457H129L255 269L76 81H3Z" />
</font>
</defs>
</svg>
