<?xml version="1.0" standalone="no"?>
<!DOCTYPE svg PUBLIC "-//W3C//DTD SVG 1.1//EN" "http://www.w3.org/Graphics/SVG/1.1/DTD/svg11.dtd">
<svg xmlns="http://www.w3.org/2000/svg">
<defs >
<font id="PlusJakartaSans" horiz-adv-x="587" ><font-face
    font-family="Plus Jakarta Sans SemiBold"
    units-per-em="1000"
    panose-1="0 0 0 0 0 0 0 0 0 0"
    ascent="1038"
    descent="-222"
    alphabetic="0" />
<glyph unicode=" " horiz-adv-x="175" />
<glyph unicode="!" horiz-adv-x="342" d="M114 222L180 745H295L214 222H114ZM76 0L94 130H209L191 0H76Z" />
<glyph unicode="&quot;" horiz-adv-x="464" d="M138 484L158 745H263L213 484H138ZM312 484L333 745H438L387 484H312Z" />
<glyph unicode="#" horiz-adv-x="873" d="M87 0L161 174H41L55 274H204L289 472H169L183 572H331L405 745H520L446 572H626L700 745H815L741 572H861L847 472H698L614 274H734L720 174H571L497 0H382L456 174H276L202 0H87ZM319 274H499L583 472H404L319 274Z" />
<glyph unicode="$" horiz-adv-x="649" d="M321 -12Q248 -12 189 14T89 86T34 195L136 232Q155 165 204 129T322 92Q367 92 399 107T448 147T466 205Q466 239 446 262T383 298L252 340Q176 365 138 414T99 531Q99 594 132 645T223 726T355 757Q423 757 477 733T568
667T617 571L516 534Q500 590 457 622T353 654Q312 654 281 640T233 600T216 541Q216 507 236 483T301 443L422 403Q503 377 543 329T584 213Q584 152 550 101T457 19T321 -12ZM235 -100L367 845H448L316 -100H235Z" />
<glyph unicode="%" horiz-adv-x="1050" d="M124 0L834 745H960L250 0H124ZM290 367Q238 367 197 391T131 456T107 548Q107 605 135 652T212 728T317 757Q369 757 410 733T475 668T499 576Q499 520 471 472T395 396T290 367ZM297 458Q327 458 351 474T389 515T404
570Q404 595 393 617T361 652T311 666Q281 666 256 651T217 610T202 555Q202 530 213 508T246 472T297 458ZM762 -12Q710 -12 668 12T603 77T579 169Q579 227 608 274T684 349T790 378Q842 378 883 354T947 289T971 197Q971 141 943 93T867 17T762 -12ZM768 79Q799
79 823 94T861 135T876 191Q876 216 865 238T833 273T783 287Q753 287 729 272T690 231T675 176Q675 151 686 129T718 93T768 79Z" />
<glyph unicode="&amp;" horiz-adv-x="781" d="M268 -12Q206 -12 159 10T86 74T59 175Q59 220 74 255T114 318T171 367T236 406L312 446Q363 473 391 497T431 544T442 590Q442 621 423 641T372 661Q344 661 322 648T286 612T273 561Q273 537 282 515T306 473T333
436L689 0H550L247 371Q228 394 209 421T176 481T163 553Q163 611 191 657T267 730T372 757Q424 757 463 736T525 677T548 591Q548 541 526 502T467 432T381 373L302 328Q272 311 244 291T197 244T178 177Q178 135 204 112T274 88Q306 88 331 98T376 126T412 162T443
198L576 366H701L545 156Q526 132 501 103T443 47T367 5T268 -12Z" />
<glyph unicode="&apos;" horiz-adv-x="289" d="M138 484L158 745H263L213 484H138Z" />
<glyph unicode="(" horiz-adv-x="368" d="M182 -160Q120 -79 89 15T58 214Q58 315 83 409T158 589T277 745H372Q314 673 270 588T201 409T176 213Q176 115 201 21T277 -160H182Z" />
<glyph unicode=")" horiz-adv-x="368" d="M3 -160Q62 -84 106 2T174 181T198 374Q198 473 173 566T98 745H193Q255 664 285 571T316 373Q316 273 291 179T218 -1T98 -160H3Z" />
<glyph unicode="*" horiz-adv-x="520" d="M195 371L130 424L222 528L109 568L149 654L262 614L281 745H372L353 614L478 654L494 568L369 528L432 424L351 371L288 475L195 371Z" />
<glyph unicode="+" horiz-adv-x="643" d="M234 0L262 201H62L76 301H276L304 500H405L377 301H576L562 201H363L335 0H234Z" />
<glyph unicode="," horiz-adv-x="328" d="M37 -147L44 -95Q78 -87 100 -63T132 0H77L96 130H211L197 35Q187 -38 146 -85T37 -147Z" />
<glyph unicode="-" horiz-adv-x="566" d="M76 221L90 321H490L476 221H76Z" />
<glyph unicode="." horiz-adv-x="348" d="M78 0L97 130H212L193 0H78Z" />
<glyph unicode="/" horiz-adv-x="487" d="M-43 -120L407 705H537L87 -120H-43Z" />
<glyph unicode="0" horiz-adv-x="719" d="M338 -12Q257 -12 198 28T106 141T73 313Q73 400 96 480T162 622T268 721T409 757Q491 757 550 717T642 605T675 434Q675 347 653 267T587 124T481 25T338 -12ZM341 96Q397 96 438 127T505 208T544 319T557 437Q557 536
518 593T406 650Q353 650 313 621T245 542T205 433T191 310Q191 244 208 196T259 122T341 96Z" />
<glyph unicode="1" horiz-adv-x="393" d="M137 0L227 645H86L100 745H360L256 0H137Z" />
<glyph unicode="2" horiz-adv-x="618" d="M33 0L41 85L268 304Q319 354 355 389T413 452T445 503T455 556Q455 601 426 626T347 652Q294 652 253 621T188 530L86 565Q106 625 144 667T236 733T352 757Q416 757 465 734T544 668T573 566Q573 525 560 490T524 422T470
357T404 291L201 100H540L526 0H33Z" />
<glyph unicode="3" horiz-adv-x="611" d="M268 -12Q207 -12 155 10T68 72T22 166L127 204Q141 151 179 122T274 93Q320 93 356 112T412 166T433 244Q433 284 416 312T370 355T300 370Q282 370 263 367T229 358L209 414L430 645H111L124 745H580L568 650L353 420L347
459Q410 458 455 430T526 355T551 246Q551 190 529 143T468 61T377 7T268 -12Z" />
<glyph unicode="4" horiz-adv-x="647" d="M357 0L380 168H25L38 266L455 745H574L507 266H609L595 168H493L470 0H357ZM122 223L108 266H394L448 651L481 641L122 223Z" />
<glyph unicode="5" horiz-adv-x="614" d="M273 -12Q212 -12 161 9T75 70T29 164L132 202Q146 149 186 121T276 93Q322 93 358 114T415 172T436 253Q436 292 420 321T374 367T307 384Q259 384 223 365T167 314L72 335L187 746H577L566 646H218L273 694L187 380L156
400Q190 447 234 466T333 485Q400 485 449 455T526 374T554 259Q554 200 532 151T471 66T381 9T273 -12Z" />
<glyph unicode="6" horiz-adv-x="603" d="M275 -12Q207 -12 155 16T73 94T43 211Q43 263 60 310T104 398T164 475L399 745H546L256 415L231 429Q247 445 264 453T300 466T341 470Q400 470 448 443T523 368T551 256Q551 181 514 120T415 24T275 -12ZM281 93Q324
93 358 114T412 171T433 250Q433 304 400 337T313 370Q271 370 236 350T181 294T161 215Q161 160 194 127T281 93Z" />
<glyph unicode="7" horiz-adv-x="555" d="M30 0L442 646H88L102 746H583L570 646L166 0H30Z" />
<glyph unicode="8" horiz-adv-x="632" d="M292 -12Q219 -12 164 15T79 89T48 196Q48 248 70 292T131 368T221 416L213 386Q167 404 142 445T117 538Q117 599 149 648T237 727T364 757Q426 757 472 735T545 672T572 579Q572 536 555 497T509 430T441 386L439 416Q502
394 536 348T570 237Q570 170 535 114T438 23T292 -12ZM295 88Q342 88 377 107T433 158T453 231Q453 285 418 316T323 347Q276 347 241 328T186 277T166 204Q166 152 201 120T295 88ZM333 447Q368 447 395 463T438 505T454 564Q454 606 427 631T355 657Q321 657
293 642T249 600T233 541Q233 499 260 473T333 447Z" />
<glyph unicode="9" horiz-adv-x="603" d="M86 0L376 330L401 317Q386 302 369 293T332 280T291 276Q232 276 184 302T109 377T81 490Q81 565 117 625T217 721T357 757Q425 757 477 729T559 652T589 535Q589 482 572 436T528 348T468 270L233 0H86ZM319 375Q362
375 396 396T451 452T471 531Q471 585 438 618T351 652Q309 652 275 631T220 575T199 496Q199 441 232 408T319 375Z" />
<glyph unicode=":" horiz-adv-x="347" d="M78 0L97 130H212L193 0H78ZM136 411L154 541H269L251 411H136Z" />
<glyph unicode=";" horiz-adv-x="367" d="M57 -147L65 -95Q99 -87 121 -63T153 0H98L116 130H231L218 35Q208 -38 167 -85T57 -147ZM156 411L174 541H289L271 411H156Z" />
<glyph unicode="&lt;" horiz-adv-x="643" d="M515 22L100 217L115 325L585 520L568 399L199 247L200 288L530 131L515 22Z" />
<glyph unicode="=" horiz-adv-x="643" d="M102 311L117 411H567L552 311H102ZM69 71L83 171H533L519 71H69Z" />
<glyph unicode="&gt;" horiz-adv-x="643" d="M59 22L75 143L445 295L444 254L114 411L129 520L544 325L529 217L59 22Z" />
<glyph unicode="?" horiz-adv-x="557" d="M214 222L217 239Q229 304 258 349T327 431Q351 454 373 474T409 516T423 568Q423 603 398 627T324 652Q278 652 242 624T194 547L91 572Q104 627 138 668T222 733T333 757Q400 757 446 732T516 665T541 576Q541 532 523
498T475 434T416 377Q382 345 359 311T326 234L323 222H214ZM183 0L202 130H317L298 0H183Z" />
<glyph unicode="@" horiz-adv-x="930" d="M446 -214Q358 -214 285 -185T159 -103T76 21T47 178Q47 270 79 352T171 496T314 595T499 631Q590 631 663 601T788 518T867 395T895 245Q895 168 871 114T804 30T708 0Q674 0 643 13T592 52T571 118L589 80Q576 55 552
37T496 10T432 0Q377 0 333 25T264 95T239 197Q239 261 269 314T350 399T465 431Q516 431 556 412T612 361L598 334L611 421H694L659 170Q655 141 662 123T683 96T713 88Q753 88 775 125T797 233Q797 325 762 394T660 502T500 541Q422 541 357 514T245 437T171
323T145 185Q145 94 184 25T293 -84T454 -124Q500 -124 543 -113T625 -81L660 -159Q614 -186 559 -200T446 -214ZM447 88Q484 88 513 106T560 156T578 226Q578 277 547 309T465 342Q427 343 398 325T351 275T333 206Q333 155 365 122T447 88Z" />
<glyph unicode="A" horiz-adv-x="692" d="M-27 0L339 745H485L643 0H521L488 167H186L105 0H-27ZM235 272H467L389 661L422 657L235 272Z" />
<glyph unicode="B" horiz-adv-x="698" d="M40 0L144 745H445Q542 745 596 697T651 565Q651 525 638 490T599 428T536 382L529 422Q592 396 620 350T648 250Q648 174 614 118T516 31T367 0H40ZM172 105H387Q430 105 462 122T512 169T530 240Q530 287 499 315T413
344H205L172 105ZM220 448H416Q451 448 477 462T518 502T533 560Q533 599 507 621T437 643H247L220 448Z" />
<glyph unicode="C" horiz-adv-x="792" d="M415 -12Q342 -12 279 13T169 86T96 199T70 346Q70 431 99 505T182 636T306 725T463 757Q543 757 604 730T706 658T762 563L653 517Q633 576 584 613T460 650Q401 650 352 627T265 563T208 467T188 345Q188 270 216 214T296
127T415 96Q493 96 548 134T632 231L736 179Q714 128 668 85T558 15T415 -12Z" />
<glyph unicode="D" horiz-adv-x="744" d="M40 0L144 745H375Q480 745 557 703T677 585T720 412Q720 322 691 247T608 117T478 31T308 0H40ZM172 105H310Q374 105 427 127T518 189T578 285T600 407Q600 479 572 531T491 612T366 640H247L172 105Z" />
<glyph unicode="E" horiz-adv-x="601" d="M40 0L144 745H634L620 640H247L217 426H570L555 321H202L172 105H545L530 0H40Z" />
<glyph unicode="F" horiz-adv-x="585" d="M40 0L144 745H629L614 640H247L215 416H543L528 311H201L157 0H40Z" />
<glyph unicode="G" horiz-adv-x="818" d="M413 -12Q341 -12 279 13T170 85T97 198T70 345Q70 432 100 507T185 638T311 725T466 757Q544 757 605 730T706 660T762 565L654 514Q635 575 585 612T458 650Q399 650 350 627T264 563T208 468T188 350Q188 273 217 216T300
127T423 96Q486 96 537 121T622 193T662 302L669 353L718 305H435L444 405H790L783 325Q775 246 743 184T661 78T547 11T413 -12Z" />
<glyph unicode="H" horiz-adv-x="735" d="M40 0L144 745H261L215 417H560L606 745H724L620 0H502L546 312H201L157 0H40Z" />
<glyph unicode="I" horiz-adv-x="272" d="M40 0L144 745H261L157 0H40Z" />
<glyph unicode="J" horiz-adv-x="390" d="M7 0L22 110H59Q111 110 147 139T189 219L263 745H381L305 208Q297 148 265 101T181 27T59 0H7Z" />
<glyph unicode="K" horiz-adv-x="671" d="M40 0L144 745H261L205 341L174 353L566 745H714L367 396L386 480L622 0H492L319 347L187 215L157 0H40Z" />
<glyph unicode="L" horiz-adv-x="540" d="M40 0L144 745H261L172 105H494L480 0H40Z" />
<glyph unicode="M" horiz-adv-x="875" d="M40 0L144 745H254L478 350L409 353L751 745H864L760 0H642L726 603L764 590L435 210H423L198 611L241 603L157 0H40Z" />
<glyph unicode="N" horiz-adv-x="740" d="M40 0L144 745H238L569 168L529 161L611 745H729L625 0H530L203 581L239 589L157 0H40Z" />
<glyph unicode="O" horiz-adv-x="882" d="M432 -12Q355 -12 289 14T174 89T98 203T70 347Q70 433 101 507T187 638T317 725T478 757Q556 757 622 731T737 656T813 543T840 399Q840 313 809 239T722 108T592 20T432 -12ZM433 96Q494 96 547 119T639 184T701 280T723
398Q723 471 692 527T606 617T478 650Q416 650 364 627T272 562T210 466T188 348Q188 276 219 219T305 129T433 96Z" />
<glyph unicode="P" horiz-adv-x="646" d="M40 0L144 745H403Q473 745 525 719T606 644T635 524Q635 453 601 398T506 312T361 280H196L157 0H40ZM211 385H368Q412 385 445 403T498 453T517 525Q517 579 484 609T395 640H247L211 385Z" />
<glyph unicode="Q" horiz-adv-x="882" d="M432 -12Q355 -12 289 14T174 89T98 203T70 347Q70 433 101 507T187 638T317 725T478 757Q556 757 622 731T737 656T813 543T840 399Q840 313 809 239T722 108T592 20T432 -12ZM433 96Q494 96 547 119T639 184T701 280T723
398Q723 471 692 527T606 617T478 650Q416 650 364 627T272 562T210 466T188 348Q188 276 219 219T305 129T433 96ZM582 -90L393 298H512L702 -90H582Z" />
<glyph unicode="R" horiz-adv-x="660" d="M40 0L144 745H403Q473 745 525 719T606 644T635 524Q635 470 615 424T557 346T467 296L595 0H468L329 328L401 280H196L157 0H40ZM211 385H368Q412 385 445 403T498 453T517 525Q517 579 484 609T395 640H247L211 385Z" />
<glyph unicode="S" horiz-adv-x="649" d="M321 -12Q248 -12 189 14T89 86T34 195L136 232Q155 165 204 129T322 92Q367 92 399 107T448 147T466 205Q466 239 446 262T383 298L252 340Q176 365 138 414T99 531Q99 594 132 645T223 726T355 757Q423 757 477 733T568
667T617 571L516 534Q500 590 457 622T353 654Q312 654 281 640T233 600T216 541Q216 507 236 483T301 443L422 403Q503 377 543 329T584 213Q584 152 550 101T457 19T321 -12Z" />
<glyph unicode="T" horiz-adv-x="533" d="M171 0L261 640H63L78 745H588L573 640H378L289 0H171Z" />
<glyph unicode="U" horiz-adv-x="712" d="M328 -12Q242 -12 181 24T90 121T70 261L138 745H256L188 261Q182 212 198 175T249 117T334 96Q383 96 423 116T490 175T524 265L591 745H708L639 255Q628 177 586 117T477 23T328 -12Z" />
<glyph unicode="V" horiz-adv-x="682" d="M237 0L78 745H200L326 109H300L605 745H738L369 0H237Z" />
<glyph unicode="W" horiz-adv-x="1008" d="M178 0L78 745H199L275 100H240L510 745H628L713 100H674L937 745H1064L755 0H623L538 635H574L311 0H178Z" />
<glyph unicode="X" horiz-adv-x="641" d="M-27 0L270 381L87 745H213L370 430L316 435L548 745H691L407 370L592 0H466L307 321L362 315L115 0H-27Z" />
<glyph unicode="Y" horiz-adv-x="648" d="M228 0L274 336L78 745H203L362 413L314 415L562 745H703L393 336L347 0H228Z" />
<glyph unicode="Z" horiz-adv-x="576" d="M-21 0L-9 90L442 640H91L106 745H616L604 656L151 105H536L522 0H-21Z" />
<glyph unicode="[" horiz-adv-x="383" d="M39 -160L166 745H406L392 645H267L168 -60H293L279 -160H39Z" />
<glyph unicode="\" horiz-adv-x="478" d="M290 -120L72 705H193L411 -120H290Z" />
<glyph unicode="]" horiz-adv-x="383" d="M-17 -160L-3 -60H122L222 645H97L110 745H350L223 -160H-17Z" />
<glyph unicode="^" horiz-adv-x="643" d="M120 422L335 745H442L566 422H447L359 656H407L252 422H120Z" />
<glyph unicode="_" horiz-adv-x="642" d="M31 -100L45 0H520L506 -100H31Z" />
<glyph unicode="`" horiz-adv-x="372" d="M276 640L191 805H339L388 640H276Z" />
<glyph unicode="a" horiz-adv-x="578" d="M204 -12Q154 -12 114 4T51 54T27 136Q27 185 52 222T122 282T226 315L420 346L411 257L244 228Q200 220 173 199T145 142Q145 111 167 94T227 77Q271 77 306 97T364 152T393 228L411 360Q415 391 402 412T364 444T311
455Q264 455 228 431T171 368L80 420Q100 460 136 490T219 536T318 553Q382 553 431 528T506 459T524 355L474 0H366L379 98L406 93Q383 59 352 36T284 0T204 -12Z" />
<glyph unicode="b" horiz-adv-x="669" d="M335 -12Q270 -12 217 15T136 91L152 110L138 0H29L135 757H248L203 429L171 456Q203 502 254 527T369 553Q445 553 502 518T592 424T625 290Q625 228 603 174T542 77T450 12T335 -12ZM326 93Q379 93 419 119T483 190T507
289Q507 335 488 371T434 427T354 448Q302 448 262 422T199 351T176 254Q176 207 195 171T248 114T326 93Z" />
<glyph unicode="c" horiz-adv-x="617" d="M305 -12Q230 -12 171 22T79 117T45 253Q45 316 68 371T131 467T224 530T340 553Q397 553 444 534T524 480T572 399L471 357Q457 399 422 423T339 448Q287 448 248 421T186 350T163 253Q163 206 181 170T233 114T309 93Q360
93 399 119T458 189L555 139Q535 95 498 61T412 8T305 -12Z" />
<glyph unicode="d" horiz-adv-x="669" d="M299 -12Q224 -12 167 21T77 113T44 247Q44 314 67 369T130 466T223 530T338 553Q406 553 456 526T534 451L512 429L557 757H671L565 0H457L472 110L499 93Q468 41 415 15T299 -12ZM312 93Q365 93 405 120T469 191T493
289Q493 335 474 371T421 427T343 448Q291 448 250 422T186 351T162 252Q162 206 181 170T234 114T312 93Z" />
<glyph unicode="e" horiz-adv-x="615" d="M305 -12Q227 -12 169 22T78 117T45 252Q45 314 66 368T126 464T216 529T329 553Q408 553 462 520T545 432T573 310Q573 293 570 274T564 238H132L139 328H506L449 289Q463 336 450 374T405 435T328 458Q271 458 234 430T179
352T161 240Q161 193 180 159T232 106T307 88Q357 88 393 111T453 169L543 120Q524 82 489 52T406 5T305 -12Z" />
<glyph unicode="f" horiz-adv-x="405" d="M88 0L149 439H51L65 541H164L168 567Q178 630 208 672T283 735T383 757Q398 757 412 756T437 752L429 655Q421 657 412 657T398 657Q351 657 320 637T280 563L277 541H401L387 439H263L202 0H88Z" />
<glyph unicode="g" horiz-adv-x="657" d="M267 -220Q207 -220 158 -200T77 -146T33 -67L140 -32Q148 -68 183 -91T277 -115Q318 -115 353 -99T412 -54T442 18L460 147L490 122Q459 70 408 44T295 18Q224 18 168 49T80 137T47 268Q47 328 68 380T128 471T217 531T328
553Q393 553 444 526T525 449L504 422L520 541H628L555 14Q546 -55 506 -107T404 -190T267 -220ZM309 123Q358 123 397 147T458 212T481 299Q481 342 463 376T413 429T337 448Q290 448 251 425T188 361T165 271Q165 228 183 195T234 142T309 123Z" />
<glyph unicode="h" d="M29 0L135 757H247L202 435L186 452Q212 503 258 528T362 553Q422 553 465 525T529 448T541 337L494 0H381L426 325Q434 381 406 414T326 448Q291 448 261 432T212 387T186 318L142 0H29Z" />
<glyph unicode="i" horiz-adv-x="246" d="M29 0L104 541H218L142 0H29ZM115 615L133 745H246L228 615H115Z" />
<glyph unicode="j" horiz-adv-x="249" d="M-75 -221Q-88 -221 -102 -219T-126 -215L-118 -118Q-109 -119 -100 -120T-83 -121Q-39 -121 -9 -98T27 -32L107 541H221L139 -38Q131 -97 102 -138T27 -200T-75 -221ZM118 615L136 745H249L231 615H118Z" />
<glyph unicode="k" horiz-adv-x="567" d="M28 0L134 757H248L177 250L123 261L433 541H585L350 324L517 0H394L245 287L307 296L123 126L169 201L142 0H28Z" />
<glyph unicode="l" horiz-adv-x="246" d="M29 0L135 757H248L142 0H29Z" />
<glyph unicode="m" horiz-adv-x="919" d="M29 0L104 541H212L197 428L185 446Q212 501 256 527T357 553Q422 553 468 519T528 425L491 424Q523 491 578 522T697 553Q756 553 798 526T862 452T874 342L826 0H714L759 325Q764 363 754 390T721 433T664 448Q631 448
602 433T554 391T529 325L484 0H371L416 325Q422 363 412 390T378 433T321 448Q287 448 258 432T210 387T185 318L141 0H29Z" />
<glyph unicode="n" d="M29 0L104 541H212L198 435L186 452Q212 503 258 528T362 553Q422 553 465 525T529 448T541 337L494 0H381L426 325Q434 381 406 414T326 448Q291 448 261 432T211 387T185 318L141 0H29Z" />
<glyph unicode="o" horiz-adv-x="657" d="M313 -12Q238 -12 178 22T81 116T45 255Q45 317 68 371T132 466T228 530T344 553Q420 553 481 519T577 426T612 288Q612 226 589 172T525 76T429 11T313 -12ZM314 93Q366 93 406 120T470 191T494 289Q494 336 475 371T422
427T344 448Q292 448 251 422T187 351T163 253Q163 207 182 171T235 114T314 93Z" />
<glyph unicode="p" horiz-adv-x="669" d="M1 -200L104 541H213L198 429L171 456Q203 502 254 527T369 553Q445 553 502 518T592 424T625 290Q625 228 603 174T542 77T450 12T335 -12Q270 -12 217 15T136 91L160 110L117 -200H1ZM326 93Q379 93 419 119T483 190T507
289Q507 335 488 371T434 427T354 448Q302 448 262 422T199 351T176 254Q176 207 195 171T248 114T326 93Z" />
<glyph unicode="q" horiz-adv-x="671" d="M426 -200L467 110L499 93Q468 41 415 15T299 -12Q224 -12 167 21T77 113T44 247Q44 314 67 369T130 466T223 530T338 553Q406 553 456 526T534 451L517 429L532 541H641L539 -200H426ZM312 93Q365 93 405 120T469 191T493
289Q493 335 474 371T421 427T343 448Q291 448 250 422T186 351T162 252Q162 206 181 170T234 114T312 93Z" />
<glyph unicode="r" horiz-adv-x="362" d="M29 0L104 541H213L198 432L189 448Q215 501 258 524T357 548H390L376 445H329Q272 445 233 409T184 302L142 0H29Z" />
<glyph unicode="s" horiz-adv-x="511" d="M237 -12Q182 -12 136 7T59 61T15 142L104 178Q121 132 157 106T243 80Q287 80 312 100T338 152Q338 176 321 190T275 212L192 235Q131 252 99 289T67 379Q67 429 94 468T168 530T273 553Q350 553 404 515T477 412L386
376Q375 416 343 437T269 459Q229 459 204 441T178 391Q178 367 195 353T239 331L324 305Q385 286 417 249T450 161Q450 112 423 73T347 11T237 -12Z" />
<glyph unicode="t" horiz-adv-x="408" d="M267 -6Q180 -6 139 43T109 180L145 439H49L64 541H76Q114 541 140 564T171 626L177 665H291L273 541H395L380 439H259L222 179Q218 151 223 132T246 104T294 94Q304 94 313 95T334 97L325 -1Q312 -4 296 -5T267 -6Z" />
<glyph unicode="u" d="M226 -12Q164 -12 120 17T58 98T48 220L94 541H206L161 216Q156 179 167 152T202 109T261 93Q297 93 326 109T376 154T402 223L446 541H559L483 0H376L390 106L401 89Q375 39 329 14T226 -12Z" />
<glyph unicode="v" horiz-adv-x="550" d="M185 0L49 541H167L268 100H222L447 541H577L287 0H185Z" />
<glyph unicode="w" horiz-adv-x="855" d="M159 0L49 541H164L246 110H204L412 541H515L598 110H557L759 541H882L619 0H517L435 441H473L262 0H159Z" />
<glyph unicode="x" horiz-adv-x="536" d="M-27 0L203 275L55 541H180L302 318L242 320L424 541H563L335 270L485 0H361L239 224L291 222L110 0H-27Z" />
<glyph unicode="y" horiz-adv-x="569" d="M50 -221Q28 -221 9 -217T-27 -205L-19 -111Q-7 -113 9 -115T39 -118Q70 -118 91 -108T130 -79T164 -31L212 48L200 -47L49 542H166L274 90H231L469 542H596L272 -62Q246 -110 214 -146T141 -201T50 -221Z" />
<glyph unicode="z" horiz-adv-x="472" d="M-20 0L-9 93L356 476L377 439H56L70 541H491L480 449L117 66L99 103H431L417 0H-20Z" />
<glyph unicode="{" horiz-adv-x="372" d="M226 -160Q149 -160 111 -119T82 -6L107 176Q112 205 100 222T60 239H30L44 339H74Q102 339 118 356T139 403L166 591Q176 663 226 704T353 745H395L381 645H339Q316 645 300 630T280 589L256 412Q251 374 232 343T183
290Q207 272 217 241T222 174L197 -4Q193 -29 204 -44T240 -60H282L268 -160H226Z" />
<glyph unicode="|" horiz-adv-x="364" d="M60 -190L206 845H321L175 -190H60Z" />
<glyph unicode="}" horiz-adv-x="372" d="M-17 -160L-3 -60H39Q63 -60 79 -45T99 -4L123 174Q128 210 146 241T195 290Q171 310 161 341T156 412L182 589Q186 615 174 630T139 645H97L110 745H152Q230 745 268 704T297 591L270 403Q266 374 278 357T317 339H347L333
239H303Q276 239 260 222T238 176L213 -6Q203 -77 153 -118T25 -160H-17Z" />
<glyph unicode="~" horiz-adv-x="643" d="M414 200Q380 200 357 210T317 233T284 257T247 267Q219 267 199 250T170 201H77Q86 280 131 322T236 364Q271 364 293 354T333 331T366 307T403 297Q428 297 447 313T477 363H570Q561 284 518 242T414 200Z" />
<glyph unicode="&#xa0;" horiz-adv-x="175" />
<glyph unicode="&#xa1;" horiz-adv-x="342" d="M47 -204L128 319H228L162 -204H47ZM133 411L151 541H266L248 411H133Z" />
<glyph unicode="&#xa2;" horiz-adv-x="617" d="M319 91Q244 91 185 125T93 220T59 356Q59 419 82 473T145 569T238 633T354 656Q411 656 458 637T538 583T586 502L485 459Q471 501 436 526T353 551Q301 551 262 524T200 452T177 356Q177 309 195 273T247 217T323
196Q374 196 413 222T472 291L569 241Q549 197 512 163T426 110T319 91ZM243 0L347 745H428L324 0H243Z" />
<glyph unicode="&#xa3;" horiz-adv-x="659" d="M2 0L16 100H116L176 526Q186 596 222 648T315 728T446 757Q508 757 556 733T633 664T661 561L554 542Q554 597 524 624T443 652Q381 652 342 617T293 520L234 100H562L548 0H2ZM49 340L60 418H456L445 340H49Z" />
<glyph unicode="&#xa4;" horiz-adv-x="606" d="M91 17L31 84L117 162Q107 181 102 202T96 248Q96 282 107 315T140 376L70 454L144 521L214 443Q240 459 268 467T324 475Q353 475 379 467T428 443L514 521L574 454L488 376Q499 355 504 334T509 290Q509 256 498
223T466 162L535 84L461 17L392 95Q367 80 339 72T281 64Q254 64 227 71T177 95L91 17ZM292 167Q323 167 348 182T390 224T406 280Q406 307 394 327T361 360T313 372Q283 372 257 356T215 315T199 258Q199 233 211 212T244 179T292 167Z" />
<glyph unicode="&#xa5;" horiz-adv-x="648" d="M228 0L274 336L78 745H203L362 413L314 415L562 745H703L393 336L347 0H228ZM128 295L139 373H536L525 295H128ZM108 148L118 225H515L504 148H108Z" />
<glyph unicode="&#xa6;" horiz-adv-x="364" d="M147 428L206 845H321L262 428H147ZM60 -190L119 228H234L175 -190H60Z" />
<glyph unicode="&#xa7;" horiz-adv-x="531" d="M231 -100Q144 -100 83 -57T3 59L95 100Q114 51 152 23T240 -6Q271 -6 295 4T332 32T346 73Q346 92 336 104T310 125T276 139L189 164Q122 184 90 221T58 308Q58 362 87 404T166 471T279 496L271 431Q243 431 221
419T186 386T173 337Q173 314 183 299T211 275T248 259L330 234Q393 215 426 177T459 87Q459 34 430 -8T349 -75T231 -100ZM258 161L265 225Q296 225 320 237T358 272T372 322Q372 344 362 359T334 385T295 402L216 425Q149 445 118 483T86 569Q86 623 115 665T194
732T307 757Q382 757 439 719T515 612L422 571Q409 613 375 637T295 662Q267 662 246 652T212 625T200 586Q200 567 210 555T236 535T266 523L357 495Q420 476 453 438T487 348Q487 295 457 253T376 186T258 161Z" />
<glyph unicode="&#xa8;" horiz-adv-x="502" d="M168 640L186 765H311L293 640H168ZM373 640L391 765H516L498 640H373Z" />
<glyph unicode="&#xa9;" horiz-adv-x="927" d="M455 -12Q377 -12 311 15T196 92T120 207T92 349Q92 433 124 506T214 636T345 725T503 757Q580 757 645 730T760 653T836 539T864 398Q864 313 831 239T742 109T611 20T455 -12ZM455 73Q520 73 578 98T682 168T753
272T779 398Q779 456 758 506T700 593T612 652T503 673Q436 673 377 648T273 578T203 474T177 349Q177 271 213 209T312 110T455 73ZM472 163Q415 163 371 188T302 258T277 360Q277 424 306 474T385 553T496 582Q540 582 575 567T634 527T665 472L584 441Q575 467
553 484T496 501Q459 501 430 483T384 432T368 357Q368 307 396 276T472 244Q507 244 534 262T573 307L652 271Q640 240 614 216T551 178T472 163Z" />
<glyph unicode="&#xaa;" horiz-adv-x="449" d="M199 357Q143 357 108 384T72 462Q72 499 91 524T142 566T216 589L342 609L335 537L229 518Q206 514 189 502T171 467Q171 449 185 439T220 429Q248 429 269 441T305 475T323 522L336 618Q340 646 320 660T274 675Q244
675 219 659T181 615L107 657Q128 703 175 729T280 755Q326 755 362 737T418 687T431 613L396 366H307L315 430L340 429Q313 393 278 375T199 357Z" />
<glyph unicode="&#xab;" horiz-adv-x="637" d="M165 74L39 269L220 464H355L165 258L283 74H165ZM435 74L309 269L490 464H625L435 258L553 74H435Z" />
<glyph unicode="&#xac;" horiz-adv-x="643" d="M440 40L462 201H62L76 301H576L540 40H440Z" />
<glyph unicode="&#xad;" horiz-adv-x="566" d="M76 221L90 321H490L476 221H76Z" />
<glyph unicode="&#xae;" horiz-adv-x="669" d="M356 272Q287 272 232 304T146 391T114 513Q114 569 135 618T195 704T282 762T387 784Q454 784 508 752T595 666T627 544Q627 489 606 440T546 353T459 294T356 272ZM355 338Q411 338 457 366T532 441T561 545Q561
595 538 634T476 696T387 719Q329 719 282 691T207 616T179 512Q179 463 202 424T265 361T355 338ZM247 393L284 664H390Q431 664 457 644T484 580Q484 553 472 532T438 499L491 393H417L373 486H329L316 393H247ZM337 545H383Q396 545 406 555T417 579Q417 590
410 597T389 605H345L337 545Z" />
<glyph unicode="&#xaf;" horiz-adv-x="450" d="M171 660L184 755H489L476 660H171Z" />
<glyph unicode="&#xb0;" horiz-adv-x="518" d="M293 429Q249 429 214 449T159 503T139 581Q139 629 163 669T227 733T316 757Q360 757 394 737T449 683T470 605Q470 557 446 517T382 453T293 429ZM298 510Q323 510 343 522T376 554T388 599Q388 633 365 654T309
676Q273 676 247 650T220 586Q220 553 242 532T298 510Z" />
<glyph unicode="&#xb1;" horiz-adv-x="643" d="M259 170L280 326H80L94 426H295L316 580H417L396 426H594L580 326H381L360 170H259ZM34 0L48 100H548L534 0H34Z" />
<glyph unicode="&#xb2;" horiz-adv-x="429" d="M37 224L44 298L199 445Q247 490 273 518T311 566T323 608Q323 635 305 650T257 666Q224 666 198 646T158 591L74 621Q94 682 146 718T263 754Q308 754 344 737T400 690T421 617Q421 579 405 547T364 487T309 432L173
307H398L387 224H37Z" />
<glyph unicode="&#xb3;" horiz-adv-x="429" d="M208 216Q165 216 127 232T64 277T32 344L121 375Q130 339 155 322T212 304Q256 304 284 330T312 398Q312 435 290 455T229 475Q216 475 201 473T173 464L155 511L307 663H95L106 746H432L422 668L271 512L270 548Q314
548 345 529T394 476T411 401Q411 346 383 305T308 240T208 216Z" />
<glyph unicode="&#xb4;" horiz-adv-x="372" d="M168 640L265 805H413L280 640H168Z" />
<glyph unicode="&#xb5;" d="M-2 -140L93 541H207L161 214Q156 177 166 150T199 108T257 93Q294 93 324 109T375 156T401 225L445 541H558L483 0H375L390 118L402 96Q378 42 331 15T226 -12Q189 -12 159 -1T107 29L139 64L112 -140H-2Z" />
<glyph unicode="&#xb6;" horiz-adv-x="509" d="M215 -100L278 348Q218 348 176 373T115 444T103 546Q111 604 143 649T225 719T333 745H451L333 -100H215Z" />
<glyph unicode="&#xb7;" horiz-adv-x="347" d="M107 206L126 336H241L222 206H107Z" />
<glyph unicode="&#xb8;" horiz-adv-x="382" d="M156 -235Q128 -235 99 -226T50 -200L85 -132Q99 -144 116 -150T151 -157Q174 -157 189 -146T204 -116Q204 -97 182 -86T115 -71L149 10H218L201 -33Q247 -40 273 -61T299 -117Q299 -150 280 -177T229 -219T156 -235Z" />
<glyph unicode="&#xb9;" horiz-adv-x="312" d="M112 224L173 662H73L84 746H284L211 224H112Z" />
<glyph unicode="&#xba;" horiz-adv-x="495" d="M277 357Q223 357 180 381T111 448T85 545Q85 604 114 651T191 727T299 755Q353 755 396 731T464 665T490 568Q490 509 461 462T384 386T277 357ZM277 444Q310 444 336 460T376 506T391 569Q391 613 365 641T298
669Q265 669 239 652T198 607T183 544Q183 515 195 492T228 457T277 444Z" />
<glyph unicode="&#xbb;" horiz-adv-x="638" d="M282 74L472 281L354 464H472L598 269L417 74H282ZM12 74L202 281L84 464H202L328 269L147 74H12Z" />
<glyph unicode="&#xbc;" horiz-adv-x="879" d="M107 328L154 672H75L85 745H252L194 328H107ZM78 0L628 745H723L173 0H78ZM661 0L675 90H489L498 163L714 417H806L771 162H834L824 90H760L748 0H661ZM556 132L546 162H684L710 351L733 344L556 132Z" />
<glyph unicode="&#xbd;" horiz-adv-x="839" d="M107 328L154 672H75L85 745H252L194 328H107ZM78 0L628 745H723L173 0H78ZM483 0L489 66L611 181Q647 215 668 236T698 272T707 304Q707 324 694 335T659 346Q635 346 616 331T586 292L513 318Q528 367 570 395T665
424Q720 424 757 394T794 312Q794 281 780 255T746 208T707 169L602 73H775L765 0H483Z" />
<glyph unicode="&#xbe;" horiz-adv-x="957" d="M187 321Q153 321 122 334T71 370T45 426L123 452Q130 426 148 413T191 400Q224 400 244 420T264 469Q264 495 248 510T203 525Q192 525 179 523T155 515L139 556L259 673H95L105 745H369L360 677L240 555V589Q292
588 322 555T352 472Q352 427 329 393T268 340T187 321ZM156 0L706 745H801L251 0H156ZM739 0L753 90H567L576 163L792 417H884L849 162H912L902 90H838L826 0H739ZM634 132L624 162H762L788 351L811 344L634 132Z" />
<glyph unicode="&#xbf;" horiz-adv-x="557" d="M224 -216Q158 -216 112 -190T41 -123T16 -34Q16 10 34 44T82 108T141 164Q176 197 199 230T231 308L234 319H343L340 303Q328 238 299 193T230 110Q206 88 184 68T148 26T134 -26Q134 -61 160 -86T233 -111Q280
-111 315 -82T363 -5L466 -30Q454 -85 420 -127T335 -192T224 -216ZM240 411L259 541H374L355 411H240Z" />
<glyph unicode="&#xc0;" horiz-adv-x="692" d="M-27 0L339 745H485L643 0H521L488 167H186L105 0H-27ZM235 272H467L389 661L422 657L235 272ZM371 844L286 1009H434L483 844H371Z" />
<glyph unicode="&#xc1;" horiz-adv-x="692" d="M-27 0L339 745H485L643 0H521L488 167H186L105 0H-27ZM235 272H467L389 661L422 657L235 272ZM370 844L467 1009H615L482 844H370Z" />
<glyph unicode="&#xc2;" horiz-adv-x="692" d="M-27 0L339 745H485L643 0H521L488 167H186L105 0H-27ZM235 272H467L389 661L422 657L235 272ZM217 844L358 1004H490L586 844H477L421 934L341 844H217Z" />
<glyph unicode="&#xc3;" horiz-adv-x="692" d="M-27 0L339 745H485L643 0H521L488 167H186L105 0H-27ZM235 272H467L389 661L422 657L235 272ZM494 844Q467 844 451 853T424 873T402 893T374 902Q357 902 346 889T331 848H243Q250 897 269 929T317 977T378 993Q405
993 421 985T449 965T472 945T499 936Q519 936 529 950T544 989H632Q621 919 582 882T494 844Z" />
<glyph unicode="&#xc4;" horiz-adv-x="692" d="M-27 0L339 745H485L643 0H521L488 167H186L105 0H-27ZM235 272H467L389 661L422 657L235 272ZM262 844L280 969H405L387 844H262ZM467 844L485 969H610L592 844H467Z" />
<glyph unicode="&#xc5;" horiz-adv-x="692" d="M-27 0L339 745H485L643 0H521L488 167H186L105 0H-27ZM235 272H467L389 661L422 657L235 272ZM422 809Q377 809 347 836T317 908Q317 945 335 975T385 1023T455 1042Q501 1042 530 1015T559 944Q559 907 541 876T491
827T422 809ZM432 880Q454 880 469 896T484 934Q484 951 473 961T445 972Q423 972 408 957T393 918Q393 901 403 891T432 880Z" />
<glyph unicode="&#xc6;" horiz-adv-x="989" d="M-27 0L339 745H1022L1008 640H635L605 426H958L943 321H590L560 105H933L918 0H428L451 167H186L106 0H-27ZM236 272H466L517 640H414L236 272Z" />
<glyph unicode="&#xc7;" horiz-adv-x="792" d="M415 -12Q342 -12 279 13T169 86T96 199T70 346Q70 431 99 505T182 636T306 725T463 757Q543 757 604 730T706 658T762 563L653 517Q633 576 584 613T460 650Q401 650 352 627T265 563T208 467T188 345Q188 270 216
214T296 127T415 96Q493 96 548 134T632 231L736 179Q714 128 668 85T558 15T415 -12ZM395 -235Q367 -235 338 -226T289 -200L324 -132Q338 -144 355 -150T390 -157Q413 -157 428 -146T443 -116Q443 -97 421 -86T354 -71L388 10H457L440 -33Q486 -40 512 -61T538
-117Q538 -150 519 -177T468 -219T395 -235Z" />
<glyph unicode="&#xc8;" horiz-adv-x="601" d="M40 0L144 745H634L620 640H247L217 426H570L555 321H202L172 105H545L530 0H40ZM347 844L262 1009H410L459 844H347Z" />
<glyph unicode="&#xc9;" horiz-adv-x="601" d="M40 0L144 745H634L620 640H247L217 426H570L555 321H202L172 105H545L530 0H40ZM347 844L444 1009H592L459 844H347Z" />
<glyph unicode="&#xca;" horiz-adv-x="601" d="M40 0L144 745H634L620 640H247L217 426H570L555 321H202L172 105H545L530 0H40ZM194 844L335 1004H467L563 844H454L398 934L318 844H194Z" />
<glyph unicode="&#xcb;" horiz-adv-x="601" d="M40 0L144 745H634L620 640H247L217 426H570L555 321H202L172 105H545L530 0H40ZM238 844L256 969H381L363 844H238ZM443 844L461 969H586L568 844H443Z" />
<glyph unicode="&#xcc;" horiz-adv-x="272" d="M40 0L144 745H261L157 0H40ZM161 844L76 1009H224L273 844H161Z" />
<glyph unicode="&#xcd;" horiz-adv-x="272" d="M40 0L144 745H261L157 0H40ZM161 844L258 1009H406L273 844H161Z" />
<glyph unicode="&#xce;" horiz-adv-x="272" d="M40 0L144 745H261L157 0H40ZM8 844L149 1004H281L377 844H268L212 934L132 844H8Z" />
<glyph unicode="&#xcf;" horiz-adv-x="272" d="M40 0L144 745H261L157 0H40ZM52 844L70 969H195L177 844H52ZM257 844L275 969H400L382 844H257Z" />
<glyph unicode="&#xd0;" horiz-adv-x="744" d="M27 323L41 423H374L360 323H27ZM40 0L144 745H375Q480 745 557 703T677 585T720 412Q720 322 691 247T608 117T478 31T308 0H40ZM172 105H310Q374 105 427 127T518 189T578 285T600 407Q600 479 572 531T491 612T366
640H247L172 105Z" />
<glyph unicode="&#xd1;" horiz-adv-x="740" d="M40 0L144 745H238L569 168L529 161L611 745H729L625 0H530L203 581L239 589L157 0H40ZM518 844Q491 844 475 853T448 873T426 893T398 902Q381 902 370 889T355 848H267Q274 897 293 929T341 977T402 993Q429 993
445 985T473 965T496 945T523 936Q543 936 553 950T568 989H656Q645 919 606 882T518 844Z" />
<glyph unicode="&#xd2;" horiz-adv-x="882" d="M432 -12Q355 -12 289 14T174 89T98 203T70 347Q70 433 101 507T187 638T317 725T478 757Q556 757 622 731T737 656T813 543T840 399Q840 313 809 239T722 108T592 20T432 -12ZM433 96Q494 96 547 119T639 184T701
280T723 398Q723 471 692 527T606 617T478 650Q416 650 364 627T272 562T210 466T188 348Q188 276 219 219T305 129T433 96ZM466 844L381 1009H529L578 844H466Z" />
<glyph unicode="&#xd3;" horiz-adv-x="882" d="M432 -12Q355 -12 289 14T174 89T98 203T70 347Q70 433 101 507T187 638T317 725T478 757Q556 757 622 731T737 656T813 543T840 399Q840 313 809 239T722 108T592 20T432 -12ZM433 96Q494 96 547 119T639 184T701
280T723 398Q723 471 692 527T606 617T478 650Q416 650 364 627T272 562T210 466T188 348Q188 276 219 219T305 129T433 96ZM465 844L562 1009H710L577 844H465Z" />
<glyph unicode="&#xd4;" horiz-adv-x="882" d="M432 -12Q355 -12 289 14T174 89T98 203T70 347Q70 433 101 507T187 638T317 725T478 757Q556 757 622 731T737 656T813 543T840 399Q840 313 809 239T722 108T592 20T432 -12ZM433 96Q494 96 547 119T639 184T701
280T723 398Q723 471 692 527T606 617T478 650Q416 650 364 627T272 562T210 466T188 348Q188 276 219 219T305 129T433 96ZM312 844L453 1004H585L681 844H572L516 934L436 844H312Z" />
<glyph unicode="&#xd5;" horiz-adv-x="882" d="M432 -12Q355 -12 289 14T174 89T98 203T70 347Q70 433 101 507T187 638T317 725T478 757Q556 757 622 731T737 656T813 543T840 399Q840 313 809 239T722 108T592 20T432 -12ZM433 96Q494 96 547 119T639 184T701
280T723 398Q723 471 692 527T606 617T478 650Q416 650 364 627T272 562T210 466T188 348Q188 276 219 219T305 129T433 96ZM589 844Q562 844 546 853T519 873T497 893T469 902Q452 902 441 889T426 848H338Q345 897 364 929T412 977T473 993Q500 993 516 985T544
965T567 945T594 936Q614 936 624 950T639 989H727Q716 919 677 882T589 844Z" />
<glyph unicode="&#xd6;" horiz-adv-x="882" d="M432 -12Q355 -12 289 14T174 89T98 203T70 347Q70 433 101 507T187 638T317 725T478 757Q556 757 622 731T737 656T813 543T840 399Q840 313 809 239T722 108T592 20T432 -12ZM433 96Q494 96 547 119T639 184T701
280T723 398Q723 471 692 527T606 617T478 650Q416 650 364 627T272 562T210 466T188 348Q188 276 219 219T305 129T433 96ZM357 844L375 969H500L482 844H357ZM562 844L580 969H705L687 844H562Z" />
<glyph unicode="&#xd7;" horiz-adv-x="643" d="M131 0L66 74L244 230L113 382L192 453L323 301L499 455L565 382L388 227L522 71L443 0L309 156L131 0Z" />
<glyph unicode="&#xd8;" horiz-adv-x="882" d="M31 0L745 745H881L167 0H31ZM432 -12Q355 -12 289 14T174 89T98 203T70 347Q70 433 101 507T187 638T317 725T478 757Q556 757 622 731T737 656T813 543T840 399Q840 313 809 239T722 108T592 20T432 -12ZM433 96Q494
96 547 119T639 184T701 280T723 398Q723 471 692 527T606 617T478 650Q416 650 364 627T272 562T210 466T188 348Q188 276 219 219T305 129T433 96Z" />
<glyph unicode="&#xd9;" horiz-adv-x="712" d="M328 -12Q242 -12 181 24T90 121T70 261L138 745H256L188 261Q182 212 198 175T249 117T334 96Q383 96 423 116T490 175T524 265L591 745H708L639 255Q628 177 586 117T477 23T328 -12ZM381 844L296 1009H444L493 844H381Z" />
<glyph unicode="&#xda;" horiz-adv-x="712" d="M328 -12Q242 -12 181 24T90 121T70 261L138 745H256L188 261Q182 212 198 175T249 117T334 96Q383 96 423 116T490 175T524 265L591 745H708L639 255Q628 177 586 117T477 23T328 -12ZM380 844L477 1009H625L492 844H380Z" />
<glyph unicode="&#xdb;" horiz-adv-x="712" d="M328 -12Q242 -12 181 24T90 121T70 261L138 745H256L188 261Q182 212 198 175T249 117T334 96Q383 96 423 116T490 175T524 265L591 745H708L639 255Q628 177 586 117T477 23T328 -12ZM227 844L368 1004H500L596
844H487L431 934L351 844H227Z" />
<glyph unicode="&#xdc;" horiz-adv-x="712" d="M328 -12Q242 -12 181 24T90 121T70 261L138 745H256L188 261Q182 212 198 175T249 117T334 96Q383 96 423 116T490 175T524 265L591 745H708L639 255Q628 177 586 117T477 23T328 -12ZM272 844L290 969H415L397
844H272ZM477 844L495 969H620L602 844H477Z" />
<glyph unicode="&#xdd;" horiz-adv-x="648" d="M228 0L274 336L78 745H203L362 413L314 415L562 745H703L393 336L347 0H228ZM348 844L445 1009H593L460 844H348Z" />
<glyph unicode="&#xde;" horiz-adv-x="664" d="M33 0L137 745H254L235 605H396Q466 605 518 579T599 504T628 384Q628 313 594 258T499 172T354 140H170L150 0H33ZM185 245H361Q405 245 438 263T491 313T510 385Q510 439 477 469T388 500H220L185 245Z" />
<glyph unicode="&#xdf;" horiz-adv-x="630" d="M18 -155L112 518Q123 593 161 646T258 728T386 757Q447 757 494 736T568 674T595 578Q595 542 582 503T536 430T449 380L455 412Q516 391 547 350T579 242Q579 201 565 159T518 80T431 22T299 0H237L251 100H303Q352
100 383 114T431 149T455 195T462 239Q462 288 432 316T343 345H285L299 445H338Q378 445 405 458T448 491T471 533T478 572Q478 612 453 634T381 657Q342 657 309 640T253 590T225 512L131 -155H18Z" />
<glyph unicode="&#xe0;" horiz-adv-x="578" d="M204 -12Q154 -12 114 4T51 54T27 136Q27 185 52 222T122 282T226 315L420 346L411 257L244 228Q200 220 173 199T145 142Q145 111 167 94T227 77Q271 77 306 97T364 152T393 228L411 360Q415 391 402 412T364 444T311
455Q264 455 228 431T171 368L80 420Q100 460 136 490T219 536T318 553Q382 553 431 528T506 459T524 355L474 0H366L379 98L406 93Q383 59 352 36T284 0T204 -12ZM286 640L201 805H349L398 640H286Z" />
<glyph unicode="&#xe1;" horiz-adv-x="578" d="M204 -12Q154 -12 114 4T51 54T27 136Q27 185 52 222T122 282T226 315L420 346L411 257L244 228Q200 220 173 199T145 142Q145 111 167 94T227 77Q271 77 306 97T364 152T393 228L411 360Q415 391 402 412T364 444T311
455Q264 455 228 431T171 368L80 420Q100 460 136 490T219 536T318 553Q382 553 431 528T506 459T524 355L474 0H366L379 98L406 93Q383 59 352 36T284 0T204 -12ZM285 640L382 805H530L397 640H285Z" />
<glyph unicode="&#xe2;" horiz-adv-x="578" d="M204 -12Q154 -12 114 4T51 54T27 136Q27 185 52 222T122 282T226 315L420 346L411 257L244 228Q200 220 173 199T145 142Q145 111 167 94T227 77Q271 77 306 97T364 152T393 228L411 360Q415 391 402 412T364 444T311
455Q264 455 228 431T171 368L80 420Q100 460 136 490T219 536T318 553Q382 553 431 528T506 459T524 355L474 0H366L379 98L406 93Q383 59 352 36T284 0T204 -12ZM388 640L529 800H661L757 640H648L592 730L512 640H388Z" />
<glyph unicode="&#xe3;" horiz-adv-x="578" d="M204 -12Q154 -12 114 4T51 54T27 136Q27 185 52 222T122 282T226 315L420 346L411 257L244 228Q200 220 173 199T145 142Q145 111 167 94T227 77Q271 77 306 97T364 152T393 228L411 360Q415 391 402 412T364 444T311
455Q264 455 228 431T171 368L80 420Q100 460 136 490T219 536T318 553Q382 553 431 528T506 459T524 355L474 0H366L379 98L406 93Q383 59 352 36T284 0T204 -12ZM665 640Q638 640 622 649T595 669T573 689T545 698Q528 698 517 685T502 644H414Q421 693 440 725T488
773T549 789Q576 789 592 781T620 761T643 741T670 732Q690 732 700 746T715 785H803Q792 715 753 678T665 640Z" />
<glyph unicode="&#xe4;" horiz-adv-x="578" d="M204 -12Q154 -12 114 4T51 54T27 136Q27 185 52 222T122 282T226 315L420 346L411 257L244 228Q200 220 173 199T145 142Q145 111 167 94T227 77Q271 77 306 97T364 152T393 228L411 360Q415 391 402 412T364 444T311
455Q264 455 228 431T171 368L80 420Q100 460 136 490T219 536T318 553Q382 553 431 528T506 459T524 355L474 0H366L379 98L406 93Q383 59 352 36T284 0T204 -12ZM177 640L195 765H320L302 640H177ZM382 640L400 765H525L507 640H382Z" />
<glyph unicode="&#xe5;" horiz-adv-x="578" d="M204 -12Q154 -12 114 4T51 54T27 136Q27 185 52 222T122 282T226 315L420 346L411 257L244 228Q200 220 173 199T145 142Q145 111 167 94T227 77Q271 77 306 97T364 152T393 228L411 360Q415 391 402 412T364 444T311
455Q264 455 228 431T171 368L80 420Q100 460 136 490T219 536T318 553Q382 553 431 528T506 459T524 355L474 0H366L379 98L406 93Q383 59 352 36T284 0T204 -12ZM337 605Q292 605 262 632T232 704Q232 741 250 771T300 819T370 838Q416 838 445 811T474 740Q474
703 456 672T406 623T337 605ZM347 676Q369 676 384 692T399 730Q399 747 388 757T360 768Q338 768 323 753T308 714Q308 697 318 687T347 676Z" />
<glyph unicode="&#xe6;" horiz-adv-x="973" d="M204 -12Q154 -12 114 4T51 54T27 136Q27 185 52 222T122 282T226 315L409 344L411 360Q415 391 402 412T364 444T311 455Q264 455 228 431T171 368L80 420Q100 460 136 490T219 536T318 553Q363 553 401 540T467
504T510 447L470 448Q510 497 565 525T688 553Q766 553 820 520T903 432T932 310Q932 293 929 274T922 238H520Q521 191 539 158T590 106T665 88Q715 88 752 111T811 169L902 120Q883 82 848 52T765 5T663 -12Q598 -12 546 14T461 85L491 113L474 0H366L381 107L398
82Q375 51 345 30T280 -1T204 -12ZM227 77Q271 77 306 97T364 152T393 228L396 254L244 228Q200 220 173 199T145 142Q145 111 167 94T227 77ZM529 328H814Q816 366 800 395T755 441T687 458Q644 458 613 442T560 397T529 328Z" />
<glyph unicode="&#xe7;" horiz-adv-x="617" d="M305 -12Q230 -12 171 22T79 117T45 253Q45 316 68 371T131 467T224 530T340 553Q397 553 444 534T524 480T572 399L471 357Q457 399 422 423T339 448Q287 448 248 421T186 350T163 253Q163 206 181 170T233 114T309
93Q360 93 399 119T458 189L555 139Q535 95 498 61T412 8T305 -12ZM286 -235Q258 -235 229 -226T180 -200L215 -132Q229 -144 246 -150T281 -157Q304 -157 319 -146T334 -116Q334 -97 312 -86T245 -71L279 10H348L331 -33Q377 -40 403 -61T429 -117Q429 -150 410
-177T359 -219T286 -235Z" />
<glyph unicode="&#xe8;" horiz-adv-x="615" d="M305 -12Q227 -12 169 22T78 117T45 252Q45 314 66 368T126 464T216 529T329 553Q408 553 462 520T545 432T573 310Q573 293 570 274T564 238H132L139 328H506L449 289Q463 336 450 374T405 435T328 458Q271 458
234 430T179 352T161 240Q161 193 180 159T232 106T307 88Q357 88 393 111T453 169L543 120Q524 82 489 52T406 5T305 -12ZM304 640L219 805H367L416 640H304Z" />
<glyph unicode="&#xe9;" horiz-adv-x="615" d="M305 -12Q227 -12 169 22T78 117T45 252Q45 314 66 368T126 464T216 529T329 553Q408 553 462 520T545 432T573 310Q573 293 570 274T564 238H132L139 328H506L449 289Q463 336 450 374T405 435T328 458Q271 458
234 430T179 352T161 240Q161 193 180 159T232 106T307 88Q357 88 393 111T453 169L543 120Q524 82 489 52T406 5T305 -12ZM303 640L400 805H548L415 640H303Z" />
<glyph unicode="&#xea;" horiz-adv-x="615" d="M305 -12Q227 -12 169 22T78 117T45 252Q45 314 66 368T126 464T216 529T329 553Q408 553 462 520T545 432T573 310Q573 293 570 274T564 238H132L139 328H506L449 289Q463 336 450 374T405 435T328 458Q271 458
234 430T179 352T161 240Q161 193 180 159T232 106T307 88Q357 88 393 111T453 169L543 120Q524 82 489 52T406 5T305 -12ZM406 640L547 800H679L775 640H666L610 730L530 640H406Z" />
<glyph unicode="&#xeb;" horiz-adv-x="615" d="M305 -12Q227 -12 169 22T78 117T45 252Q45 314 66 368T126 464T216 529T329 553Q408 553 462 520T545 432T573 310Q573 293 570 274T564 238H132L139 328H506L449 289Q463 336 450 374T405 435T328 458Q271 458
234 430T179 352T161 240Q161 193 180 159T232 106T307 88Q357 88 393 111T453 169L543 120Q524 82 489 52T406 5T305 -12ZM195 640L213 765H338L320 640H195ZM400 640L418 765H543L525 640H400Z" />
<glyph unicode="&#xec;" horiz-adv-x="220" d="M16 0L91 541H205L129 0H16ZM106 640L21 805H169L218 640H106Z" />
<glyph unicode="&#xed;" horiz-adv-x="220" d="M16 0L91 541H205L129 0H16ZM362 640L459 805H607L474 640H362Z" />
<glyph unicode="&#xee;" horiz-adv-x="220" d="M16 0L91 541H205L129 0H16ZM-47 640L94 800H226L322 640H213L157 730L77 640H-47Z" />
<glyph unicode="&#xef;" horiz-adv-x="220" d="M16 0L91 541H205L129 0H16ZM-3 640L15 765H140L122 640H-3ZM202 640L220 765H345L327 640H202Z" />
<glyph unicode="&#xf0;" horiz-adv-x="669" d="M321 -12Q247 -12 188 21T94 114T60 249Q60 311 82 364T145 458T239 520T355 543Q390 543 424 535T486 506T534 451L512 417Q517 476 498 526T442 615T354 674T245 696Q218 696 190 692T134 677L122 772Q160 784
195 790T263 796Q354 796 423 761T538 665T607 526T631 361Q631 255 596 171T492 37T321 -12ZM328 93Q379 93 420 119T485 189T509 285Q509 328 491 363T439 418T358 438Q306 438 265 413T201 345T177 251Q177 205 196 169T250 113T328 93ZM266 572L270 631L605
755L601 695L266 572Z" />
<glyph unicode="&#xf1;" d="M29 0L104 541H212L198 435L186 452Q212 503 258 528T362 553Q422 553 465 525T529 448T541 337L494 0H381L426 325Q434 381 406 414T326 448Q291 448 261 432T211 387T185 318L141 0H29ZM669 640Q642 640 626 649T599 669T577 689T549
698Q532 698 521 685T506 644H418Q425 693 444 725T492 773T553 789Q580 789 596 781T624 761T647 741T674 732Q694 732 704 746T719 785H807Q796 715 757 678T669 640Z" />
<glyph unicode="&#xf2;" horiz-adv-x="657" d="M313 -12Q238 -12 178 22T81 116T45 255Q45 317 68 371T132 466T228 530T344 553Q420 553 481 519T577 426T612 288Q612 226 589 172T525 76T429 11T313 -12ZM314 93Q366 93 406 120T470 191T494 289Q494 336 475
371T422 427T344 448Q292 448 251 422T187 351T163 253Q163 207 182 171T235 114T314 93ZM325 640L240 805H388L437 640H325Z" />
<glyph unicode="&#xf3;" horiz-adv-x="657" d="M313 -12Q238 -12 178 22T81 116T45 255Q45 317 68 371T132 466T228 530T344 553Q420 553 481 519T577 426T612 288Q612 226 589 172T525 76T429 11T313 -12ZM314 93Q366 93 406 120T470 191T494 289Q494 336 475
371T422 427T344 448Q292 448 251 422T187 351T163 253Q163 207 182 171T235 114T314 93ZM324 640L421 805H569L436 640H324Z" />
<glyph unicode="&#xf4;" horiz-adv-x="657" d="M313 -12Q238 -12 178 22T81 116T45 255Q45 317 68 371T132 466T228 530T344 553Q420 553 481 519T577 426T612 288Q612 226 589 172T525 76T429 11T313 -12ZM314 93Q366 93 406 120T470 191T494 289Q494 336 475
371T422 427T344 448Q292 448 251 422T187 351T163 253Q163 207 182 171T235 114T314 93ZM171 640L312 800H444L540 640H431L375 730L295 640H171Z" />
<glyph unicode="&#xf5;" horiz-adv-x="657" d="M313 -12Q238 -12 178 22T81 116T45 255Q45 317 68 371T132 466T228 530T344 553Q420 553 481 519T577 426T612 288Q612 226 589 172T525 76T429 11T313 -12ZM314 93Q366 93 406 120T470 191T494 289Q494 336 475
371T422 427T344 448Q292 448 251 422T187 351T163 253Q163 207 182 171T235 114T314 93ZM448 640Q421 640 405 649T378 669T356 689T328 698Q311 698 300 685T285 644H197Q204 693 223 725T271 773T332 789Q359 789 375 781T403 761T426 741T453 732Q473 732 483
746T498 785H586Q575 715 536 678T448 640Z" />
<glyph unicode="&#xf6;" horiz-adv-x="657" d="M313 -12Q238 -12 178 22T81 116T45 255Q45 317 68 371T132 466T228 530T344 553Q420 553 481 519T577 426T612 288Q612 226 589 172T525 76T429 11T313 -12ZM314 93Q366 93 406 120T470 191T494 289Q494 336 475
371T422 427T344 448Q292 448 251 422T187 351T163 253Q163 207 182 171T235 114T314 93ZM216 640L234 765H359L341 640H216ZM421 640L439 765H564L546 640H421Z" />
<glyph unicode="&#xf7;" horiz-adv-x="643" d="M62 201L76 301H576L562 201H62ZM226 0L241 111H356L341 0H226ZM281 390L296 500H411L396 390H281Z" />
<glyph unicode="&#xf8;" horiz-adv-x="657" d="M-11 0L534 541H669L124 0H-11ZM313 -12Q238 -12 178 22T81 116T45 255Q45 317 68 371T132 466T228 530T344 553Q420 553 481 519T577 426T612 288Q612 226 589 172T525 76T429 11T313 -12ZM314 93Q366 93 406 120T470
191T494 289Q494 336 475 371T422 427T344 448Q292 448 251 422T187 351T163 253Q163 207 182 171T235 114T314 93Z" />
<glyph unicode="&#xf9;" d="M226 -12Q164 -12 120 17T58 98T48 220L94 541H206L161 216Q156 179 167 152T202 109T261 93Q297 93 326 109T376 154T402 223L446 541H559L483 0H376L390 106L401 89Q375 39 329 14T226 -12ZM290 640L205 805H353L402 640H290Z" />
<glyph unicode="&#xfa;" d="M226 -12Q164 -12 120 17T58 98T48 220L94 541H206L161 216Q156 179 167 152T202 109T261 93Q297 93 326 109T376 154T402 223L446 541H559L483 0H376L390 106L401 89Q375 39 329 14T226 -12ZM289 640L386 805H534L401 640H289Z" />
<glyph unicode="&#xfb;" d="M226 -12Q164 -12 120 17T58 98T48 220L94 541H206L161 216Q156 179 167 152T202 109T261 93Q297 93 326 109T376 154T402 223L446 541H559L483 0H376L390 106L401 89Q375 39 329 14T226 -12ZM392 640L533 800H665L761 640H652L596
730L516 640H392Z" />
<glyph unicode="&#xfc;" d="M226 -12Q164 -12 120 17T58 98T48 220L94 541H206L161 216Q156 179 167 152T202 109T261 93Q297 93 326 109T376 154T402 223L446 541H559L483 0H376L390 106L401 89Q375 39 329 14T226 -12ZM181 640L199 765H324L306 640H181ZM386
640L404 765H529L511 640H386Z" />
<glyph unicode="&#xfd;" horiz-adv-x="569" d="M50 -221Q28 -221 9 -217T-27 -205L-19 -111Q-7 -113 9 -115T39 -118Q70 -118 91 -108T130 -79T164 -31L212 48L200 -47L49 542H166L274 90H231L469 542H596L272 -62Q246 -110 214 -146T141 -201T50 -221ZM280 640L377
805H525L392 640H280Z" />
<glyph unicode="&#xfe;" horiz-adv-x="669" d="M1 -200L133 745H249L205 429L171 456Q203 502 254 527T369 553Q445 553 502 518T592 424T625 290Q625 228 603 174T542 77T450 12T335 -12Q270 -12 217 15T136 91L160 110L117 -200H1ZM326 93Q379 93 419 119T483
190T507 289Q507 335 488 371T434 427T354 448Q302 448 262 422T199 351T176 254Q176 207 195 171T248 114T326 93Z" />
<glyph unicode="&#xff;" horiz-adv-x="569" d="M50 -221Q28 -221 9 -217T-27 -205L-19 -111Q-7 -113 9 -115T39 -118Q70 -118 91 -108T130 -79T164 -31L212 48L200 -47L49 542H166L274 90H231L469 542H596L272 -62Q246 -110 214 -146T141 -201T50 -221ZM172 640L190
765H315L297 640H172ZM377 640L395 765H520L502 640H377Z" />
<glyph unicode="&#x2013;" horiz-adv-x="626" d="M76 221L90 321H550L536 221H76Z" />
<glyph unicode="&#x2014;" horiz-adv-x="956" d="M76 221L90 321H880L866 221H76Z" />
<glyph unicode="&#x2018;" horiz-adv-x="328" d="M126 490L138 575Q148 648 188 695T298 757L290 702Q256 694 236 673T206 620H259L241 490H126Z" />
<glyph unicode="&#x2019;" horiz-adv-x="328" d="M125 478L132 533Q166 541 187 562T216 615H164L182 745H297L285 660Q275 587 234 540T125 478Z" />
<glyph unicode="&#x201a;" horiz-adv-x="328" d="M38 -137L45 -82Q79 -74 100 -53T129 0H77L95 130H210L198 45Q188 -28 147 -75T38 -137Z" />
<glyph unicode="&#x201c;" horiz-adv-x="513" d="M262 490L274 575Q284 648 324 695T434 757L426 702Q392 694 372 673T342 620H395L377 490H262ZM77 490L89 575Q99 648 139 695T249 757L241 702Q207 694 187 673T157 620H210L192 490H77Z" />
<glyph unicode="&#x201d;" horiz-adv-x="513" d="M262 478L269 533Q303 541 324 562T353 615H301L319 745H434L422 660Q412 587 371 540T262 478ZM77 478L84 533Q118 541 139 562T168 615H116L134 745H249L237 660Q227 587 186 540T77 478Z" />
<glyph unicode="&#x201e;" horiz-adv-x="513" d="M77 -137L84 -82Q118 -74 139 -53T168 0H116L134 130H249L237 45Q227 -28 186 -75T77 -137ZM262 -137L269 -82Q303 -74 324 -53T353 0H301L319 130H434L422 45Q412 -28 371 -75T262 -137Z" />
<glyph unicode="&#x2022;" horiz-adv-x="634" d="M298 70Q245 70 204 93T139 157T115 249Q115 311 145 361T227 442T342 472Q394 472 434 449T496 385T519 294Q519 249 502 209T454 137T383 88T298 70Z" />
<glyph unicode="&#x2039;" horiz-adv-x="367" d="M165 74L39 269L220 464H355L165 258L283 74H165Z" />
<glyph unicode="&#x203a;" horiz-adv-x="368" d="M12 74L202 281L84 464H202L328 269L147 74H12Z" />
</font>
</defs>
</svg>
