<svg xmlns="http://www.w3.org/2000/svg" version="1.1" xmlns:xlink="http://www.w3.org/1999/xlink" xmlns:svgjs="http://svgjs.com/svgjs" width="1440" height="200" preserveAspectRatio="none" viewBox="0 0 1440 200"><g mask="url(&quot;#SvgjsMask1031&quot;)" fill="none"><path d="M1488 200L0 200 L0 110.88Q57.38 48.26, 120 105.64Q163.93 77.57, 192 121.5Q257.07 66.57, 312 131.64Q332.43 80.07, 384 100.5Q426.51 71.02, 456 113.53Q500.05 85.58, 528 129.62Q573.53 55.15, 648 100.68Q714.79 47.47, 768 114.26Q809.22 83.47, 840 124.69Q864.5 77.19, 912 101.69Q953.15 70.84, 984 111.99Q1052.45 60.44, 1104 128.89Q1125.95 78.84, 1176 100.79Q1242.95 47.75, 1296 114.7Q1362.37 61.07, 1416 127.43Q1439.54 78.97, 1488 102.5z" fill="rgba(108, 78, 228, 1)"></path><path d="M1512 200L0 200 L0 156.28Q46.75 83.03, 120 129.78Q185.32 75.1, 240 140.42Q282.78 111.2, 312 153.98Q358.88 80.87, 432 127.75Q473.84 97.59, 504 139.43Q545.09 108.52, 576 149.61Q624.87 78.48, 696 127.35Q761.9 73.25, 816 139.15Q858.35 109.5, 888 151.85Q934.63 78.49, 1008 125.12Q1075.7 72.82, 1128 140.52Q1196.55 89.07, 1248 157.62Q1267.82 105.44, 1320 125.25Q1362.33 95.57, 1392 137.9Q1461.3 87.19, 1512 156.49z" fill="rgba(76, 54, 199, 1)"></path><path d="M1488 200L0 200 L0 169.62Q62.84 112.46, 120 175.3Q145.16 128.46, 192 153.62Q261.05 102.67, 312 171.72Q377.71 117.43, 432 183.14Q480.92 112.06, 552 160.98Q606.59 95.57, 672 150.15Q744.31 102.46, 792 174.77Q822.37 133.14, 864 163.51Q918.79 98.3, 984 153.08Q1055.63 104.72, 1104 176.35Q1133.93 134.28, 1176 164.21Q1229.29 97.5, 1296 150.79Q1368.69 103.49, 1416 176.18Q1446.79 134.97, 1488 165.76z" fill="rgba(90, 55, 228, 1)"></path><path d="M1536 200L0 200 L0 178.76Q46.97 153.73, 72 200.7Q126.12 134.81, 192 188.93Q221.82 146.75, 264 176.57Q340.22 132.79, 384 209.01Q436.98 141.99, 504 194.96Q534.88 153.84, 576 184.73Q647.86 136.59, 696 208.45Q725.33 165.77, 768 195.1Q796.87 151.97, 840 180.84Q913.25 134.09, 960 207.34Q990.42 165.76, 1032 196.18Q1058.12 150.3, 1104 176.42Q1180.15 132.57, 1224 208.73Q1250.86 163.58, 1296 190.44Q1350.7 125.14, 1416 179.84Q1490.8 134.64, 1536 209.44z" fill="rgba(33, 33, 33, 1)"></path></g><defs><mask id="SvgjsMask1031"><rect width="1440" height="200" fill="#ffffff"></rect></mask></defs></svg>