<svg xmlns="http://www.w3.org/2000/svg" version="1.1" xmlns:xlink="http://www.w3.org/1999/xlink" xmlns:svgjs="http://svgjs.com/svgjs" width="2560" height="1440" preserveAspectRatio="none" viewBox="0 0 2560 1440"><g mask="url(&quot;#SvgjsMask1048&quot;)" fill="none"><rect width="2560" height="1440" x="0" y="0" fill="rgba(108, 78, 228, 1)"></rect><path d="M0,1170.69C217.567,1147.418,428.478,1067.446,594.146,924.509C747.756,791.976,784.327,580.031,887.241,405.189C1005.306,204.606,1295.235,48.146,1243.564,-178.797C1190.523,-411.759,861.368,-440.716,663.99,-575.351C523.757,-671.006,409.702,-794.781,251.248,-855.671C82.218,-920.625,-100.373,-984.502,-274.873,-936.131C-450.235,-887.521,-562.172,-727.68,-687.262,-595.516C-818.143,-457.233,-956.927,-325.91,-1021.841,-146.919C-1096.56,59.108,-1141.906,283.413,-1082.528,494.374C-1018.559,721.648,-882.099,935.894,-681.86,1060.994C-482.586,1185.492,-233.635,1195.68,0,1170.69" fill="#6141e2"></path><path d="M2560 2714.252C2799.977 2668.242 2847.034 2333.2039999999997 3029.802 2171.026 3173.215 2043.769 3412.554 2039.2150000000001 3508.085 1872.976 3605.1949999999997 1703.988 3571.161 1491.045 3530.04 1300.529 3490.91 1119.237 3384.056 969.6469999999999 3279.977 816.136 3162.093 642.263 3067.64 442.1 2881.726 344.3019999999999 2678.203 237.24099999999999 2414.226 145.0709999999999 2211.833 254.25199999999995 2005.267 365.68399999999997 2042.921 682.412 1904.116 871.673 1782.266 1037.817 1489.208 1077.894 1458.365 1281.609 1427.567 1485.026 1677.527 1616.838 1762.96 1803.996 1848.415 1991.201 1822.588 2221.668 1958.154 2376.491 2112.8360000000002 2553.145 2329.396 2758.465 2560 2714.252" fill="#775be6"></path></g><defs><mask id="SvgjsMask1048"><rect width="2560" height="1440" fill="#ffffff"></rect></mask></defs></svg>