<svg width="75" height="49" viewBox="0 0 75 49" fill="none" xmlns="http://www.w3.org/2000/svg">
<path fill-rule="evenodd" clip-rule="evenodd" d="M20 22C18.8954 22 18 21.1046 18 20C18 18.8954 18.8954 18 20 18C21.1046 18 22 18.8954 22 20C22 21.1046 21.1046 22 20 22ZM20 14C18.8954 14 18 13.1046 18 12C18 10.8954 18.8954 10 20 10C21.1046 10 22 10.8954 22 12C22 13.1046 21.1046 14 20 14ZM20 6C18.8954 6 18 5.10457 18 4C18 2.89543 18.8954 2 20 2C21.1046 2 22 2.89543 22 4C22 5.10457 21.1046 6 20 6ZM12 22C10.8954 22 10 21.1046 10 20C10 18.8954 10.8954 18 12 18C13.1046 18 14 18.8954 14 20C14 21.1046 13.1046 22 12 22ZM12 14C10.8954 14 10 13.1046 10 12C10 10.8954 10.8954 10 12 10C13.1046 10 14 10.8954 14 12C14 13.1046 13.1046 14 12 14ZM12 6C10.8954 6 10 5.10457 10 4C10 2.89543 10.8954 2 12 2C13.1046 2 14 2.89543 14 4C14 5.10457 13.1046 6 12 6ZM4 22C2.89543 22 2 21.1046 2 20C2 18.8954 2.89543 18 4 18C5.10457 18 6 18.8954 6 20C6 21.1046 5.10457 22 4 22ZM4 14C2.89543 14 2 13.1046 2 12C2 10.8954 2.89543 10 4 10C5.10457 10 6 10.8954 6 12C6 13.1046 5.10457 14 4 14ZM4 6C2.89543 6 2 5.10457 2 4C2 2.89543 2.89543 2 4 2C5.10457 2 6 2.89543 6 4C6 5.10457 5.10457 6 4 6Z" fill="white" fill-opacity="0.4"/>
<path fill-rule="evenodd" clip-rule="evenodd" d="M44 22C42.8954 22 42 21.1046 42 20C42 18.8954 42.8954 18 44 18C45.1046 18 46 18.8954 46 20C46 21.1046 45.1046 22 44 22ZM44 14C42.8954 14 42 13.1046 42 12C42 10.8954 42.8954 10 44 10C45.1046 10 46 10.8954 46 12C46 13.1046 45.1046 14 44 14ZM44 6C42.8954 6 42 5.10457 42 4C42 2.89543 42.8954 2 44 2C45.1046 2 46 2.89543 46 4C46 5.10457 45.1046 6 44 6ZM36 22C34.8954 22 34 21.1046 34 20C34 18.8954 34.8954 18 36 18C37.1046 18 38 18.8954 38 20C38 21.1046 37.1046 22 36 22ZM36 14C34.8954 14 34 13.1046 34 12C34 10.8954 34.8954 10 36 10C37.1046 10 38 10.8954 38 12C38 13.1046 37.1046 14 36 14ZM36 6C34.8954 6 34 5.10457 34 4C34 2.89543 34.8954 2 36 2C37.1046 2 38 2.89543 38 4C38 5.10457 37.1046 6 36 6ZM28 22C26.8954 22 26 21.1046 26 20C26 18.8954 26.8954 18 28 18C29.1046 18 30 18.8954 30 20C30 21.1046 29.1046 22 28 22ZM28 14C26.8954 14 26 13.1046 26 12C26 10.8954 26.8954 10 28 10C29.1046 10 30 10.8954 30 12C30 13.1046 29.1046 14 28 14ZM28 6C26.8954 6 26 5.10457 26 4C26 2.89543 26.8954 2 28 2C29.1046 2 30 2.89543 30 4C30 5.10457 29.1046 6 28 6Z" fill="white" fill-opacity="0.4"/>
<path fill-rule="evenodd" clip-rule="evenodd" d="M68 22C66.8954 22 66 21.1046 66 20C66 18.8954 66.8954 18 68 18C69.1046 18 70 18.8954 70 20C70 21.1046 69.1046 22 68 22ZM68 14C66.8954 14 66 13.1046 66 12C66 10.8954 66.8954 10 68 10C69.1046 10 70 10.8954 70 12C70 13.1046 69.1046 14 68 14ZM68 6C66.8954 6 66 5.10457 66 4C66 2.89543 66.8954 2 68 2C69.1046 2 70 2.89543 70 4C70 5.10457 69.1046 6 68 6ZM60 22C58.8954 22 58 21.1046 58 20C58 18.8954 58.8954 18 60 18C61.1046 18 62 18.8954 62 20C62 21.1046 61.1046 22 60 22ZM60 14C58.8954 14 58 13.1046 58 12C58 10.8954 58.8954 10 60 10C61.1046 10 62 10.8954 62 12C62 13.1046 61.1046 14 60 14ZM60 6C58.8954 6 58 5.10457 58 4C58 2.89543 58.8954 2 60 2C61.1046 2 62 2.89543 62 4C62 5.10457 61.1046 6 60 6ZM52 22C50.8954 22 50 21.1046 50 20C50 18.8954 50.8954 18 52 18C53.1046 18 54 18.8954 54 20C54 21.1046 53.1046 22 52 22ZM52 14C50.8954 14 50 13.1046 50 12C50 10.8954 50.8954 10 52 10C53.1046 10 54 10.8954 54 12C54 13.1046 53.1046 14 52 14ZM52 6C50.8954 6 50 5.10457 50 4C50 2.89543 50.8954 2 52 2C53.1046 2 54 2.89543 54 4C54 5.10457 53.1046 6 52 6Z" fill="white" fill-opacity="0.4"/>
<path fill-rule="evenodd" clip-rule="evenodd" d="M20 45C18.8954 45 18 44.1046 18 43C18 41.8954 18.8954 41 20 41C21.1046 41 22 41.8954 22 43C22 44.1046 21.1046 45 20 45ZM20 37C18.8954 37 18 36.1046 18 35C18 33.8954 18.8954 33 20 33C21.1046 33 22 33.8954 22 35C22 36.1046 21.1046 37 20 37ZM20 29C18.8954 29 18 28.1046 18 27C18 25.8954 18.8954 25 20 25C21.1046 25 22 25.8954 22 27C22 28.1046 21.1046 29 20 29ZM12 45C10.8954 45 10 44.1046 10 43C10 41.8954 10.8954 41 12 41C13.1046 41 14 41.8954 14 43C14 44.1046 13.1046 45 12 45ZM12 37C10.8954 37 10 36.1046 10 35C10 33.8954 10.8954 33 12 33C13.1046 33 14 33.8954 14 35C14 36.1046 13.1046 37 12 37ZM12 29C10.8954 29 10 28.1046 10 27C10 25.8954 10.8954 25 12 25C13.1046 25 14 25.8954 14 27C14 28.1046 13.1046 29 12 29ZM4 45C2.89543 45 2 44.1046 2 43C2 41.8954 2.89543 41 4 41C5.10457 41 6 41.8954 6 43C6 44.1046 5.10457 45 4 45ZM4 37C2.89543 37 2 36.1046 2 35C2 33.8954 2.89543 33 4 33C5.10457 33 6 33.8954 6 35C6 36.1046 5.10457 37 4 37ZM4 29C2.89543 29 2 28.1046 2 27C2 25.8954 2.89543 25 4 25C5.10457 25 6 25.8954 6 27C6 28.1046 5.10457 29 4 29Z" fill="white" fill-opacity="0.4"/>
<path fill-rule="evenodd" clip-rule="evenodd" d="M44 45C42.8954 45 42 44.1046 42 43C42 41.8954 42.8954 41 44 41C45.1046 41 46 41.8954 46 43C46 44.1046 45.1046 45 44 45ZM44 37C42.8954 37 42 36.1046 42 35C42 33.8954 42.8954 33 44 33C45.1046 33 46 33.8954 46 35C46 36.1046 45.1046 37 44 37ZM44 29C42.8954 29 42 28.1046 42 27C42 25.8954 42.8954 25 44 25C45.1046 25 46 25.8954 46 27C46 28.1046 45.1046 29 44 29ZM36 45C34.8954 45 34 44.1046 34 43C34 41.8954 34.8954 41 36 41C37.1046 41 38 41.8954 38 43C38 44.1046 37.1046 45 36 45ZM36 37C34.8954 37 34 36.1046 34 35C34 33.8954 34.8954 33 36 33C37.1046 33 38 33.8954 38 35C38 36.1046 37.1046 37 36 37ZM36 29C34.8954 29 34 28.1046 34 27C34 25.8954 34.8954 25 36 25C37.1046 25 38 25.8954 38 27C38 28.1046 37.1046 29 36 29ZM28 45C26.8954 45 26 44.1046 26 43C26 41.8954 26.8954 41 28 41C29.1046 41 30 41.8954 30 43C30 44.1046 29.1046 45 28 45ZM28 37C26.8954 37 26 36.1046 26 35C26 33.8954 26.8954 33 28 33C29.1046 33 30 33.8954 30 35C30 36.1046 29.1046 37 28 37ZM28 29C26.8954 29 26 28.1046 26 27C26 25.8954 26.8954 25 28 25C29.1046 25 30 25.8954 30 27C30 28.1046 29.1046 29 28 29Z" fill="white" fill-opacity="0.4"/>
<path fill-rule="evenodd" clip-rule="evenodd" d="M68 45C66.8954 45 66 44.1046 66 43C66 41.8954 66.8954 41 68 41C69.1046 41 70 41.8954 70 43C70 44.1046 69.1046 45 68 45ZM68 37C66.8954 37 66 36.1046 66 35C66 33.8954 66.8954 33 68 33C69.1046 33 70 33.8954 70 35C70 36.1046 69.1046 37 68 37ZM68 29C66.8954 29 66 28.1046 66 27C66 25.8954 66.8954 25 68 25C69.1046 25 70 25.8954 70 27C70 28.1046 69.1046 29 68 29ZM60 45C58.8954 45 58 44.1046 58 43C58 41.8954 58.8954 41 60 41C61.1046 41 62 41.8954 62 43C62 44.1046 61.1046 45 60 45ZM60 37C58.8954 37 58 36.1046 58 35C58 33.8954 58.8954 33 60 33C61.1046 33 62 33.8954 62 35C62 36.1046 61.1046 37 60 37ZM60 29C58.8954 29 58 28.1046 58 27C58 25.8954 58.8954 25 60 25C61.1046 25 62 25.8954 62 27C62 28.1046 61.1046 29 60 29ZM52 45C50.8954 45 50 44.1046 50 43C50 41.8954 50.8954 41 52 41C53.1046 41 54 41.8954 54 43C54 44.1046 53.1046 45 52 45ZM52 37C50.8954 37 50 36.1046 50 35C50 33.8954 50.8954 33 52 33C53.1046 33 54 33.8954 54 35C54 36.1046 53.1046 37 52 37ZM52 29C50.8954 29 50 28.1046 50 27C50 25.8954 50.8954 25 52 25C53.1046 25 54 25.8954 54 27C54 28.1046 53.1046 29 52 29Z" fill="white" fill-opacity="0.4"/>
</svg>
